<svg width="35" height="35" viewBox="0 0 35 35" fill="none" xmlns="http://www.w3.org/2000/svg">
<path d="M34.6254 17.8866C34.6254 8.44432 27.0012 0.791687 17.5939 0.791687C8.18673 0.791687 0.5625 8.44432 0.5625 17.8866C0.5625 25.8998 6.06446 32.6309 13.4824 34.4806V23.1085H9.96971V21.3993C9.96971 19.4593 11.5424 17.8866 13.4824 17.8866V15.6362C13.4824 9.81992 16.1037 7.12214 21.7986 7.12214C22.8764 7.12214 24.7392 7.33582 25.5043 7.54951V10.3063C25.5043 11.3615 24.5902 12.2105 23.535 12.2105C20.7408 12.2105 19.663 13.2723 19.663 16.0302V17.8866H25.2248L25.0988 18.5737C24.6168 21.2007 22.3272 23.1085 19.6563 23.1085V34.8546C28.0922 33.8329 34.6254 26.6277 34.6254 17.8866Z" fill="white"/>
</svg>
