<svg width="35" height="35" viewBox="0 0 35 35" fill="none" xmlns="http://www.w3.org/2000/svg">
<path d="M12.2263 27.5315C12.2263 27.6723 12.0683 27.785 11.8692 27.785C11.6426 27.8062 11.4846 27.6935 11.4846 27.5315C11.4846 27.3906 11.6426 27.2779 11.8417 27.2779C12.0477 27.2568 12.2263 27.3695 12.2263 27.5315ZM10.0905 27.2145C10.0424 27.3554 10.1798 27.5174 10.3858 27.5596C10.5643 27.6301 10.7704 27.5596 10.8116 27.4188C10.8528 27.2779 10.7223 27.1159 10.5163 27.0525C10.3377 27.0032 10.1386 27.0736 10.0905 27.2145ZM13.126 27.0948C12.9268 27.1441 12.7894 27.2779 12.81 27.4399C12.8306 27.5808 13.0092 27.6723 13.2152 27.623C13.4144 27.5737 13.5517 27.4399 13.5311 27.299C13.5105 27.1652 13.3251 27.0736 13.126 27.0948ZM17.6448 0.103882C8.1195 0.103882 0.833008 7.52074 0.833008 17.2901C0.833008 25.1014 5.62657 31.7858 12.4735 34.1383C13.3526 34.3003 13.6616 33.7439 13.6616 33.286C13.6616 32.8493 13.641 30.4404 13.641 28.9613C13.641 28.9613 8.83372 30.0178 7.82419 26.8623C7.82419 26.8623 7.04129 24.8126 5.91501 24.2844C5.91501 24.2844 4.34233 23.1785 6.02489 23.1997C6.02489 23.1997 7.73491 23.3405 8.67577 25.0169C10.1798 27.7357 12.7002 26.9539 13.6822 26.489C13.8402 25.362 14.2866 24.5802 14.781 24.1153C10.9421 23.6786 7.06876 23.1081 7.06876 16.3322C7.06876 14.3952 7.59069 13.4232 8.6895 12.1836C8.51095 11.7257 7.9272 9.83807 8.86806 7.401C10.3034 6.94317 13.6067 9.30276 13.6067 9.30276C14.9802 8.90832 16.4567 8.70405 17.9195 8.70405C19.3823 8.70405 20.8588 8.90832 22.2323 9.30276C22.2323 9.30276 25.5356 6.93612 26.971 7.401C27.9118 9.84511 27.3281 11.7257 27.1495 12.1836C28.2483 13.4303 28.9214 14.4023 28.9214 16.3322C28.9214 23.1292 24.8764 23.6716 21.0374 24.1153C21.6692 24.6718 22.2049 25.7283 22.2049 27.3835C22.2049 29.7572 22.1843 32.6944 22.1843 33.272C22.1843 33.7298 22.5002 34.2862 23.3724 34.1242C30.2399 31.7858 34.8961 25.1014 34.8961 17.2901C34.8961 7.52074 27.1701 0.103882 17.6448 0.103882ZM7.50828 24.3971C7.419 24.4675 7.43961 24.6295 7.55635 24.7633C7.66624 24.876 7.82419 24.9253 7.91347 24.8338C8.00275 24.7633 7.98214 24.6013 7.8654 24.4675C7.75551 24.3548 7.59756 24.3055 7.50828 24.3971ZM6.76658 23.8266C6.71851 23.9181 6.78719 24.0308 6.92454 24.1013C7.03442 24.1717 7.17177 24.1506 7.21984 24.0519C7.26792 23.9604 7.19924 23.8477 7.06189 23.7773C6.92454 23.735 6.81466 23.7561 6.76658 23.8266ZM8.99168 26.3341C8.88179 26.4256 8.923 26.6369 9.08095 26.7708C9.23891 26.9328 9.43807 26.9539 9.52735 26.8412C9.61662 26.7496 9.57542 26.5383 9.43807 26.4045C9.28698 26.2425 9.08095 26.2214 8.99168 26.3341ZM8.20877 25.2987C8.09889 25.3691 8.09889 25.5522 8.20877 25.7142C8.31866 25.8762 8.50408 25.9467 8.59336 25.8762C8.70324 25.7847 8.70324 25.6015 8.59336 25.4395C8.49721 25.2775 8.31866 25.2071 8.20877 25.2987Z" fill="white"/>
</svg>
