<svg width="35" height="35" viewBox="0 0 35 35" fill="none" xmlns="http://www.w3.org/2000/svg">
<path d="M7.72995 34.5837C3.82886 34.5837 0.66641 31.4212 0.66641 27.5202V15.3738C0.66641 13.4232 2.24764 11.842 4.19818 11.842C6.14872 11.842 7.72995 13.4232 7.72995 15.3738V34.5837ZM4.19438 8.73982C1.93617 8.73982 0.10376 6.86939 0.10376 4.61119C0.10376 3.52629 0.534734 2.48582 1.30187 1.71868C2.06901 0.951543 3.10948 0.520569 4.19438 0.520569C5.27928 0.520569 6.31974 0.951543 7.08688 1.71868C7.85402 2.48582 8.28499 3.52629 8.28499 4.61119C8.28499 6.86939 6.45258 8.73982 4.19438 8.73982ZM34.1593 34.5837C30.2666 34.5837 27.111 31.4281 27.111 27.5354V23.5132C27.111 20.8748 27.0577 17.4913 23.4385 17.4913C19.7661 17.4913 19.2034 20.3578 19.2034 23.3231V31.0557C19.2034 33.0042 17.6239 34.5837 15.6755 34.5837C13.727 34.5837 12.1475 33.0042 12.1475 31.0557V15.2293C12.1475 13.3585 13.6641 11.842 15.5348 11.842H17.371C18.2277 11.842 18.9221 12.5364 18.9221 13.3931V14.8825C18.9221 14.9166 18.9497 14.9442 18.9838 14.9442C19.0066 14.9442 19.0275 14.9318 19.0383 14.9116C19.9918 13.1346 22.2885 11.2717 25.7043 11.2717C32.8515 11.2717 34.1669 15.9782 34.1669 22.0914V34.5761C34.1669 34.5803 34.1635 34.5837 34.1593 34.5837Z" fill="white"/>
</svg>
