<svg width="529" height="591" viewBox="0 0 529 591" fill="none" xmlns="http://www.w3.org/2000/svg">
<path d="M501.811 492.865C501.844 492.938 501.869 493.016 501.883 493.095C502.327 495.609 500.623 496.532 498.974 495.744C498.867 495.693 498.774 495.618 498.695 495.531L398.186 385.83C391.916 379.919 387.976 370.475 387.976 364.858L387.976 2.82948L439.892 35.209C458.897 47.0623 470.447 67.8778 470.447 90.2765L470.447 415.426C470.447 421.716 472.483 426.877 476.424 436.192L501.811 492.865Z" fill="url(#paint0_linear_27_100)"/>
<path d="M27.2452 97.7126C27.2124 97.6393 27.1871 97.5612 27.1732 97.4822C26.7287 94.9682 28.4329 94.0454 30.0823 94.8342C30.1888 94.8851 30.2817 94.9598 30.3614 95.0469L130.87 204.747C137.14 210.659 141.081 220.102 141.081 225.72L141.081 587.102L89.1645 554.723C70.1594 542.87 58.6096 522.054 58.6096 499.655L58.6096 175.151C58.6096 168.861 56.5728 163.7 52.632 154.386L27.2452 97.7126Z" fill="url(#paint1_linear_27_100)"/>
<path d="M50.7646 90.922C27.9527 65.9101 21.1885 25.7958 19.2281 7.17221C18.9215 4.25969 21.9148 0.860974 23.3587 2.44344L72.7188 56.544C72.7188 56.544 445.704 465.127 476.548 498.946C499.58 524.199 507.339 565.243 509.792 584.416C510.164 587.322 507.123 590.83 505.656 589.224L454.594 533.324C454.594 533.324 81.2583 124.357 50.7646 90.922Z" fill="url(#paint2_linear_27_100)"/>
<defs>
<linearGradient id="paint0_linear_27_100" x1="-143.139" y1="-185.144" x2="580.354" y2="584.735" gradientUnits="userSpaceOnUse">
<stop offset="0.256213" stop-color="#F32629"/>
<stop offset="0.743644" stop-color="#D01582"/>
<stop offset="0.991854" stop-color="#4A2097"/>
</linearGradient>
<linearGradient id="paint1_linear_27_100" x1="-99.8694" y1="-107.43" x2="615.488" y2="684.085" gradientUnits="userSpaceOnUse">
<stop offset="0.189572" stop-color="#F32629"/>
<stop offset="0.674695" stop-color="#D01582"/>
<stop offset="0.994501" stop-color="#4A2097"/>
</linearGradient>
<linearGradient id="paint2_linear_27_100" x1="-148.333" y1="-181.683" x2="351.23" y2="852.825" gradientUnits="userSpaceOnUse">
<stop offset="0.22393" stop-color="#F32629"/>
<stop offset="0.640387" stop-color="#D01582"/>
<stop offset="1" stop-color="#4A2097"/>
</linearGradient>
</defs>
</svg>
