<svg width="53" height="53" viewBox="0 0 53 53" fill="none" xmlns="http://www.w3.org/2000/svg">
<circle cx="26.5" cy="26.5" r="26.5" fill="#D9D9D9"/>
<path d="M5.7381 17.2463L16.5839 46.952C8.99718 43.2762 3.77198 35.4971 3.77198 26.5C3.77198 23.1982 4.47722 20.078 5.7381 17.2463ZM41.8444 25.3566C41.8444 22.5463 40.8399 20.6016 39.9744 19.0842C38.8204 17.2143 37.7411 15.6221 37.7411 13.7522C37.7411 11.6578 39.3226 9.71307 41.5558 9.71307C41.652 9.71307 41.7482 9.72376 41.855 9.73445C37.8052 6.02658 32.4198 3.76126 26.5 3.76126C18.5607 3.76126 11.5724 7.83243 7.50121 14.0086C8.03548 14.03 8.5377 14.0407 8.96512 14.0407C11.3373 14.0407 15.0238 13.7522 15.0238 13.7522C16.2526 13.6774 16.3915 15.4832 15.1734 15.6221C15.1734 15.6221 13.9446 15.7611 12.5768 15.8359L20.8581 40.4552L25.8375 25.5383L22.3006 15.8359C21.0718 15.7611 19.9177 15.6221 19.9177 15.6221C18.6889 15.5473 18.8385 13.6774 20.0567 13.7522C20.0567 13.7522 23.8073 14.0407 26.0405 14.0407C28.4127 14.0407 32.0992 13.7522 32.0992 13.7522C33.328 13.6774 33.4669 15.4832 32.2488 15.6221C32.2488 15.6221 31.02 15.7611 29.6522 15.8359L37.8694 40.2736L40.1347 32.6976C41.0964 29.556 41.8444 27.3014 41.8444 25.3566ZM26.8954 28.4875L20.078 48.309C22.119 48.9074 24.2667 49.2387 26.5 49.2387C29.15 49.2387 31.6825 48.7792 34.044 47.9457C33.9798 47.8496 33.9264 47.7427 33.8837 47.6359L26.8954 28.4875ZM46.4498 15.5901C46.546 16.3167 46.5994 17.0861 46.5994 17.9302C46.5994 20.2383 46.172 22.8242 44.8683 26.0725L37.9228 46.1506C44.6867 42.2076 49.228 34.8881 49.228 26.5C49.228 22.5463 48.2236 18.8278 46.4498 15.5901ZM53 26.5C53 41.1177 41.1071 53 26.5 53C11.8823 53 0 41.107 0 26.5C0 11.8822 11.8823 -3.05176e-05 26.5 -3.05176e-05C41.1071 -3.05176e-05 53 11.8822 53 26.5ZM51.7819 26.5C51.7819 12.5554 40.4339 1.21811 26.5 1.21811C12.5554 1.21811 1.21815 12.5554 1.21815 26.5C1.21815 40.4445 12.5661 51.7818 26.5 51.7818C40.4446 51.7818 51.7819 40.4445 51.7819 26.5Z" fill="#207196"/>
</svg>
