<?xml version="1.0" encoding="UTF-8"?>
<svg id="Capa_2" data-name="Capa 2" xmlns="http://www.w3.org/2000/svg" viewBox="0 0 857.22 236.54">
  <defs>
    <style>
      .cls-1 {
        fill: #6e6e6e;
      }

      .cls-1, .cls-2, .cls-3, .cls-4, .cls-5, .cls-6 {
        fill-rule: evenodd;
      }

      .cls-2 {
        fill: #ffcb00;
      }

      .cls-3 {
        fill: #00953f;
      }

      .cls-4 {
        fill: #935b33;
      }

      .cls-5 {
        fill: #ca5b9d;
      }

      .cls-6 {
        fill: #1a1a18;
      }
    </style>
  </defs>
  <g id="Capa_1-2" data-name="Capa 1">
    <g>
      <path class="cls-6" d="m231.48,39.54h-19.93v20.9h-6.39V13.19h29.63v5.03h-23.24v16.29h19.93v5.03h0Zm27.52,20.9c-.21-1.06-.38-1.99-.5-2.8-.12-.82-.19-1.63-.21-2.46-1.2,1.69-2.75,3.1-4.66,4.24-1.91,1.13-3.98,1.7-6.18,1.71-3.66-.01-6.44-.94-8.35-2.81-1.92-1.87-2.87-4.45-2.87-7.74s1.35-5.97,4.07-7.87c2.71-1.89,6.4-2.84,11.05-2.84h6.95v-3.48c0-2.05-.63-3.68-1.88-4.89-1.25-1.2-3.04-1.79-5.33-1.79-2.07,0-3.76.51-5.03,1.55-1.27,1.04-1.92,2.28-1.92,3.73l-6.06.07-.07-.2c-.16-2.55,1.04-4.88,3.58-7,2.55-2.13,5.83-3.19,9.86-3.19s7.18,1.02,9.6,3.04c2.43,2.03,3.63,4.94,3.63,8.75v16.9c0,1.26.07,2.47.19,3.63.13,1.17.38,2.31.72,3.45h-6.59Zm-10.61-4.67c2.32,0,4.41-.6,6.27-1.78,1.86-1.18,3.07-2.56,3.63-4.09v-5.72h-7.18c-2.57,0-4.63.65-6.18,1.95-1.54,1.3-2.32,2.82-2.32,4.58,0,1.56.49,2.79,1.46,3.7.96.91,2.4,1.36,4.31,1.36h0Zm37.1.35c1.96,0,3.69-.65,5.16-1.96,1.46-1.31,2.2-2.91,2.2-4.82h5.77l.1.2c.09,3.02-1.21,5.72-3.9,8.06-2.68,2.35-5.79,3.51-9.34,3.52-4.94-.01-8.74-1.68-11.43-5.04-2.68-3.35-4.02-7.52-4.02-12.52v-1.37c0-4.95,1.35-9.11,4.04-12.47,2.69-3.37,6.49-5.05,11.41-5.05,3.91,0,7.12,1.22,9.62,3.64,2.5,2.41,3.71,5.4,3.62,8.92l-.07.2h-5.8c0-2.15-.7-3.97-2.09-5.47-1.4-1.51-3.16-2.25-5.27-2.25-3.13,0-5.43,1.21-6.87,3.65-1.44,2.44-2.16,5.38-2.16,8.84v1.37c0,3.52.71,6.49,2.13,8.92,1.42,2.43,3.72,3.63,6.9,3.63h0Zm40.7-.87c-1.11,1.88-2.53,3.33-4.25,4.35-1.73,1.02-3.73,1.52-6,1.53-3.83-.01-6.81-1.23-8.96-3.68-2.14-2.44-3.21-6.25-3.21-11.42v-20.7h6.39v20.77c0,3.74.55,6.31,1.66,7.72,1.1,1.41,2.82,2.12,5.16,2.12s4.14-.47,5.63-1.38c1.48-.92,2.6-2.22,3.36-3.91v-25.31h6.39v35.12h-5.74l-.42-5.2h0Zm19.95,5.2h-6.39V9.82h6.39v50.62h0Zm16.3-43.59v8.47h6.65v4.74h-6.65v21.32c0,1.64.33,2.8,1.02,3.47.68.68,1.58,1.01,2.71,1.01.37,0,.78-.04,1.23-.14.45-.1.83-.2,1.13-.31l.89,4.38c-.48.4-1.19.71-2.12.96-.93.24-1.85.37-2.76.38-2.59-.01-4.66-.79-6.19-2.36-1.54-1.56-2.3-4.03-2.3-7.38v-21.32h-5.58v-4.74h5.58v-8.47h6.39Zm32.64,43.59c-.21-1.06-.38-1.99-.5-2.8-.12-.82-.19-1.63-.21-2.46-1.2,1.69-2.75,3.1-4.66,4.24-1.91,1.13-3.98,1.7-6.18,1.71-3.66-.01-6.44-.94-8.35-2.81-1.92-1.87-2.87-4.45-2.87-7.74s1.35-5.97,4.07-7.87c2.71-1.89,6.4-2.84,11.05-2.84h6.95v-3.48c0-2.05-.63-3.68-1.88-4.89-1.25-1.2-3.04-1.79-5.33-1.79-2.07,0-3.76.51-5.03,1.55-1.27,1.04-1.92,2.28-1.92,3.73l-6.06.07-.07-.2c-.16-2.55,1.04-4.88,3.58-7,2.55-2.13,5.83-3.19,9.86-3.19s7.18,1.02,9.6,3.04c2.43,2.03,3.63,4.94,3.63,8.75v16.9c0,1.26.07,2.47.19,3.63.13,1.17.38,2.31.72,3.45h-6.59Zm-10.61-4.67c2.32,0,4.41-.6,6.27-1.78,1.86-1.18,3.07-2.56,3.63-4.09v-5.72h-7.18c-2.57,0-4.63.65-6.18,1.95-1.54,1.3-2.32,2.82-2.32,4.58,0,1.56.49,2.79,1.46,3.7.96.91,2.4,1.36,4.31,1.36h0Zm21.68-12.23c0-5.65,1.21-10.2,3.62-13.67,2.42-3.46,5.79-5.2,10.14-5.2,2.06,0,3.88.39,5.47,1.14,1.59.75,2.95,1.86,4.08,3.31V9.82h6.39v50.62h-4.91l-.96-4.44c-1.15,1.68-2.57,2.96-4.25,3.82-1.69.86-3.64,1.3-5.88,1.31-4.28-.01-7.63-1.56-10.06-4.66-2.41-3.1-3.63-7.19-3.63-12.25v-.68h0Zm6.39.68c0,3.54.73,6.39,2.18,8.52,1.44,2.14,3.7,3.2,6.75,3.2,1.9,0,3.5-.43,4.81-1.3,1.3-.88,2.35-2.08,3.18-3.64v-16.38c-.83-1.45-1.89-2.6-3.2-3.46-1.31-.85-2.88-1.29-4.72-1.29-3.08,0-5.34,1.26-6.8,3.8-1.46,2.54-2.19,5.82-2.19,9.87v.68h0Zm45.47-.68c0-5.65,1.21-10.2,3.62-13.67,2.42-3.46,5.79-5.2,10.14-5.2,2.06,0,3.88.39,5.47,1.14,1.59.75,2.95,1.86,4.08,3.31V9.82h6.39v50.62h-4.91l-.96-4.44c-1.15,1.68-2.57,2.96-4.25,3.82-1.69.86-3.64,1.3-5.88,1.31-4.28-.01-7.63-1.56-10.06-4.66-2.41-3.1-3.63-7.19-3.63-12.25v-.68h0Zm6.39.68c0,3.54.73,6.39,2.18,8.52,1.44,2.14,3.7,3.2,6.75,3.2,1.91,0,3.5-.43,4.81-1.3,1.3-.88,2.35-2.08,3.18-3.64v-16.38c-.83-1.45-1.89-2.6-3.2-3.46-1.31-.85-2.88-1.29-4.72-1.29-3.08,0-5.34,1.26-6.8,3.8-1.46,2.54-2.19,5.82-2.19,9.87v.68h0Zm44.94,16.92c-5.04-.01-8.97-1.62-11.79-4.84-2.82-3.22-4.24-7.47-4.24-12.72v-1.43c0-5.04,1.46-9.22,4.36-12.52,2.91-3.3,6.47-4.95,10.67-4.95,4.69,0,8.21,1.46,10.56,4.39,2.35,2.92,3.52,6.8,3.52,11.65v3.37h-22.45l-.1.17c0,3.52.78,6.39,2.34,8.58,1.56,2.19,3.93,3.29,7.13,3.29,2.17,0,4.07-.3,5.71-.92,1.63-.62,3.04-1.47,4.2-2.55l2.5,4.15c-1.26,1.21-2.91,2.24-4.97,3.07-2.05.83-4.53,1.24-7.43,1.25h0Zm-1-31.42c-2.24,0-4.08.85-5.54,2.57-1.46,1.73-2.35,3.92-2.68,6.61l.07.16h15.84v-.52c0-2.55-.63-4.65-1.88-6.32-1.25-1.66-3.19-2.49-5.8-2.49h0Zm59.71,20.54h-15.32l-3.18,10.19h-9.89l15.93-47.26h9.7l15.87,47.26h-9.9l-3.21-10.19h0Zm-12.98-7.43h10.68l-5.22-16.65h-.2l-5.26,16.65h0Zm26.09.35v.69c0,5.2,1.21,9.37,3.6,12.53,2.4,3.16,5.76,4.73,10.07,4.74,1.82-.01,3.42-.35,4.83-1.04,1.41-.7,2.63-1.71,3.67-3.02v3.18c0,2.29-.61,3.99-1.83,5.06-1.23,1.09-3.13,1.63-5.73,1.63-1.81,0-3.47-.18-5.02-.53-1.55-.37-3.05-.89-4.5-1.57l-1.58,7.07c1.68.84,3.52,1.51,5.52,1.99,1.98.49,3.87.73,5.64.73,5.35,0,9.52-1.25,12.5-3.74,2.99-2.5,4.49-6.04,4.49-10.6V25.33h-8.15l-.74,4.48c-1.06-1.64-2.34-2.9-3.83-3.79-1.5-.9-3.22-1.34-5.2-1.34-4.34,0-7.72,1.71-10.12,5.1-2.39,3.4-3.6,7.87-3.6,13.4h0Zm9.48.69v-.69c0-3.3.52-5.99,1.58-8.04,1.06-2.06,2.75-3.09,5.06-3.09,1.41,0,2.61.3,3.62.89,1.01.58,1.81,1.42,2.42,2.49v15.22c-.61,1.02-1.41,1.79-2.42,2.33-1.01.53-2.24.79-3.69.79-2.34,0-4.01-.87-5.04-2.64-1.03-1.76-1.54-4.19-1.54-7.26h0Zm45.46-10.39l-3.47-.09c-1.41,0-2.57.29-3.48.87-.91.58-1.59,1.41-2.07,2.46v23.73h-9.45V25.33h8.8l.42,5.2c.82-1.84,1.89-3.28,3.2-4.3,1.31-1.03,2.81-1.55,4.52-1.55.48,0,.92.04,1.32.12.4.08.81.17,1.22.28l-1.01,8.4h0Zm.38,9.09v.68c0,5.28,1.47,9.58,4.4,12.9,2.93,3.32,7,4.97,12.18,4.99,5.17-.01,9.23-1.66,12.16-4.99,2.92-3.32,4.4-7.62,4.4-12.9v-.68c0-5.26-1.47-9.56-4.42-12.88-2.95-3.33-7.01-5.01-12.2-5.01s-9.23,1.67-12.14,5.02c-2.92,3.35-4.39,7.63-4.39,12.87h0Zm9.45.68v-.68c0-3.1.56-5.64,1.71-7.61,1.13-1.98,2.92-2.97,5.37-2.97s4.26.99,5.42,2.95c1.14,1.97,1.72,4.51,1.72,7.63v.68c0,3.18-.57,5.75-1.71,7.7-1.13,1.94-2.92,2.91-5.37,2.91s-4.32-.96-5.45-2.9c-1.12-1.94-1.68-4.51-1.68-7.71h0Zm35.76-17.91l.42,5.03c1.17-1.79,2.61-3.19,4.32-4.19,1.71-1,3.62-1.5,5.75-1.5,3.54,0,6.31,1.14,8.31,3.43,1.98,2.28,2.98,5.88,2.98,10.82v21.51h-9.5v-21.49c0-2.5-.44-4.29-1.32-5.33-.88-1.05-2.19-1.58-3.94-1.58-1.41,0-2.65.27-3.71.8-1.07.53-1.96,1.26-2.65,2.19v25.41h-9.47V25.33h8.82Zm24.96,17.24c0-5.24,1.46-9.53,4.39-12.87,2.91-3.35,6.97-5.02,12.14-5.02s9.25,1.67,12.2,5.01c2.95,3.32,4.42,7.62,4.42,12.88v.68c0,5.28-1.47,9.58-4.4,12.9-2.94,3.32-6.99,4.97-12.16,4.99-5.18-.01-9.25-1.66-12.18-4.99-2.92-3.32-4.4-7.62-4.4-12.9v-.68h0Zm9.45.68c0,3.2.56,5.77,1.68,7.71,1.13,1.94,2.95,2.9,5.45,2.9s4.24-.97,5.37-2.91c1.14-1.95,1.71-4.52,1.71-7.7v-.68c0-3.12-.58-5.66-1.72-7.63-1.15-1.96-2.96-2.95-5.42-2.95s-4.24.99-5.37,2.97c-1.14,1.97-1.71,4.51-1.71,7.61v.68h0Zm35.89-17.91l.39,4.64c1.13-1.68,2.54-2.99,4.24-3.91,1.7-.92,3.66-1.38,5.88-1.38s4.18.5,5.78,1.5c1.6,1,2.81,2.5,3.63,4.51,1.09-1.87,2.49-3.35,4.22-4.41,1.73-1.06,3.77-1.59,6.1-1.59,3.46,0,6.19,1.23,8.19,3.69,2.01,2.46,3,6.2,3,11.24v20.84h-9.47v-20.87c0-2.81-.43-4.76-1.3-5.87-.86-1.11-2.16-1.66-3.87-1.66-1.34,0-2.5.3-3.49.9-.99.6-1.77,1.42-2.35,2.48,0,.41.01.76.03,1.05.02.3.03.6.03.9v23.07h-9.45v-20.87c0-2.75-.43-4.69-1.3-5.83-.86-1.13-2.17-1.71-3.9-1.71-1.27,0-2.39.24-3.36.73-.96.49-1.76,1.17-2.38,2.06v25.61h-9.45V25.33h8.8Zm56.43,35.12h-9.47V25.33h9.47v35.12h0Zm-2.8-49.39h10.55l.07.19-8.99,8.44h-8.08l6.46-8.63h0Zm29.14,49.39c-.34-.8-.64-1.64-.89-2.54-.25-.89-.43-1.79-.54-2.72-.98,1.72-2.26,3.13-3.86,4.25-1.61,1.13-3.51,1.68-5.72,1.69-3.68-.01-6.51-.95-8.5-2.85-1.99-1.89-2.99-4.48-2.99-7.74,0-3.43,1.33-6.1,3.98-8,2.65-1.89,6.51-2.84,11.6-2.84h5.33v-2.79c0-1.68-.44-3-1.33-3.93-.89-.92-2.22-1.38-3.97-1.38-1.53,0-2.71.37-3.56,1.12-.83.74-1.24,1.76-1.24,3.06h-9.13l-.06-.19c-.16-2.97,1.14-5.53,3.88-7.68,2.74-2.15,6.3-3.23,10.72-3.23s7.63,1.06,10.24,3.19c2.6,2.12,3.91,5.15,3.91,9.12v14.5c0,1.65.12,3.19.38,4.64.24,1.45.64,2.89,1.19,4.32h-9.45Zm-8.66-6.32c1.65,0,3.11-.41,4.42-1.24,1.3-.82,2.18-1.77,2.66-2.85v-4.97h-5.33c-2,0-3.53.5-4.55,1.49-1.03,1-1.55,2.22-1.55,3.67,0,1.2.39,2.14,1.15,2.84.78.71,1.84,1.06,3.2,1.06h0Zm31.13,5.9l-5.16,10.22h-6.33l2.27-10.52v-7.39h9.22v7.69h0ZM213.3,121.97h21.68v7.27h-32.83v-4.93l21.02-35.01h-20.99v-7.31h32.26v4.74l-21.14,35.25h0Zm23.13-10.61c0-5.24,1.46-9.53,4.39-12.87,2.91-3.35,6.97-5.02,12.14-5.02s9.25,1.67,12.2,5.01c2.95,3.32,4.42,7.62,4.42,12.88v.68c0,5.28-1.47,9.58-4.4,12.91-2.94,3.32-6.99,4.97-12.16,4.98-5.18-.01-9.25-1.66-12.18-4.98-2.92-3.32-4.4-7.62-4.4-12.91v-.68h0Zm9.45.68c0,3.2.56,5.77,1.68,7.71,1.13,1.94,2.95,2.9,5.45,2.9s4.24-.97,5.37-2.91c1.14-1.95,1.71-4.52,1.71-7.7v-.68c0-3.12-.58-5.66-1.72-7.63-1.15-1.96-2.96-2.95-5.42-2.95s-4.24.99-5.37,2.97c-1.14,1.97-1.71,4.51-1.71,7.61v.68h0Zm25.63-.68c0-5.24,1.46-9.53,4.39-12.87,2.91-3.35,6.97-5.02,12.14-5.02s9.25,1.67,12.2,5.01c2.95,3.32,4.42,7.62,4.42,12.88v.68c0,5.28-1.47,9.58-4.4,12.91-2.94,3.32-6.99,4.97-12.16,4.98-5.18-.01-9.25-1.66-12.18-4.98-2.92-3.32-4.4-7.62-4.4-12.91v-.68h0Zm9.45.68c0,3.2.56,5.77,1.68,7.71,1.13,1.94,2.95,2.9,5.45,2.9s4.24-.97,5.37-2.91c1.14-1.95,1.71-4.52,1.71-7.7v-.68c0-3.12-.58-5.66-1.72-7.63-1.15-1.96-2.96-2.95-5.42-2.95s-4.24.99-5.37,2.97c-1.14,1.97-1.71,4.51-1.71,7.61v.68h0Zm38.46-26.51v8.6h5.94v6.66h-5.94v17.88c0,1.36.28,2.34.85,2.92.58.58,1.33.88,2.26.88.5,0,.93-.03,1.3-.09.37-.06.79-.14,1.26-.28l.79,6.86c-.95.32-1.88.57-2.78.73-.9.16-1.87.23-2.94.24-3.27-.01-5.78-.91-7.54-2.7-1.76-1.79-2.65-4.64-2.65-8.53v-17.91h-5.13v-6.66h5.13v-8.6h9.45Zm24.56,44.4c-5.23-.01-9.33-1.62-12.26-4.83-2.95-3.21-4.42-7.34-4.42-12.41v-1.3c0-5.26,1.43-9.57,4.29-12.92,2.86-3.36,6.78-5.03,11.79-5.01,4.71,0,8.33,1.45,10.84,4.34,2.53,2.88,3.79,6.77,3.79,11.66v4.9h-20.94l-.1.2c.16,2.4.89,4.34,2.19,5.84,1.31,1.49,3.26,2.24,5.83,2.24,2.12,0,3.92-.21,5.41-.64,1.48-.43,3.01-1.1,4.59-1.98l2.57,5.84c-1.41,1.15-3.31,2.12-5.72,2.89-2.4.78-5.02,1.16-7.85,1.17h0Zm-.61-29.14c-1.91,0-3.38.65-4.4,1.96-1.03,1.31-1.65,3.05-1.87,5.21l.07.17h11.55v-.72c0-2.05-.42-3.67-1.26-4.85-.85-1.17-2.22-1.76-4.09-1.76h0Zm32.38,21.87c1.65,0,2.96-.49,3.93-1.47.97-.99,1.46-2.3,1.46-3.94h8.63l.07.2c.09,3.54-1.23,6.51-3.97,8.91-2.72,2.39-6.09,3.58-10.12,3.59-5.18-.01-9.21-1.66-12.04-4.98-2.83-3.32-4.24-7.57-4.24-12.74v-.98c0-5.15,1.41-9.39,4.23-12.74,2.82-3.35,6.82-5.02,12-5.02,4.28,0,7.73,1.24,10.35,3.7,2.61,2.47,3.89,5.72,3.8,9.74l-.07.2h-8.63c0-1.82-.49-3.32-1.45-4.53-.96-1.2-2.29-1.79-4-1.79-2.45,0-4.19.98-5.22,2.94-1.02,1.96-1.54,4.46-1.54,7.51v.98c0,3.11.52,5.64,1.54,7.57,1.03,1.92,2.79,2.88,5.27,2.88h0Zm25.83-28.52l.42,5.03c1.17-1.79,2.61-3.19,4.32-4.19,1.71-1,3.62-1.5,5.75-1.5,3.54,0,6.31,1.14,8.31,3.43,1.98,2.28,2.98,5.88,2.98,10.82v21.51h-9.5v-21.49c0-2.5-.44-4.29-1.32-5.33-.88-1.05-2.19-1.58-3.94-1.58-1.41,0-2.65.27-3.71.8-1.07.53-1.96,1.26-2.65,2.19v25.41h-9.47v-35.12h8.82Zm36.39,35.12h-9.48v-35.12h9.48v35.12h0Zm0-43.52h-9.48v-7.1h9.48v7.1h0Zm26.05,43.52c-.34-.8-.64-1.64-.89-2.54-.25-.89-.43-1.79-.54-2.72-.97,1.72-2.26,3.13-3.85,4.25-1.61,1.13-3.51,1.68-5.72,1.69-3.68-.01-6.51-.95-8.5-2.85-1.99-1.89-2.99-4.48-2.99-7.74,0-3.43,1.33-6.1,3.98-8,2.65-1.89,6.51-2.84,11.6-2.84h5.33v-2.79c0-1.68-.44-3-1.33-3.93-.89-.92-2.22-1.38-3.97-1.38-1.53,0-2.71.37-3.56,1.12-.83.74-1.24,1.76-1.24,3.06h-9.13l-.06-.19c-.16-2.97,1.14-5.53,3.88-7.68,2.74-2.15,6.3-3.23,10.72-3.23s7.63,1.06,10.24,3.19c2.6,2.12,3.91,5.15,3.91,9.12v14.5c0,1.65.12,3.19.38,4.64.24,1.45.64,2.89,1.19,4.32h-9.45Zm-8.66-6.33c1.65,0,3.11-.41,4.42-1.24,1.3-.82,2.18-1.77,2.66-2.85v-4.97h-5.33c-2,0-3.53.5-4.55,1.5-1.03,1-1.55,2.22-1.55,3.67,0,1.2.39,2.14,1.15,2.84.78.71,1.84,1.06,3.2,1.06h0Zm50.43-8.41l.39,1.95h.19l6.72-22.33h10.19l-14.25,40.38c-1,2.5-2.35,4.62-4.07,6.34-1.71,1.73-4.26,2.58-7.69,2.58-.8,0-1.54-.07-2.23-.19-.68-.13-1.51-.32-2.48-.55l1.11-6.91c.28.04.59.09.91.13.32.04.62.06.88.06,1.56,0,2.76-.38,3.6-1.15.84-.76,1.5-1.72,1.95-2.87l1.11-2.72-12.46-35.08h10.19l5.94,20.38h0Zm52.21,1.92l.58,2.59h.2l.55-2.49,10.29-34.54h9.99l-16.06,47.26h-9.74l-16.03-47.26h9.99l10.22,34.44h0Zm36.82,13.5c2.84-.01,5.45-.4,7.85-1.17,2.4-.78,4.31-1.74,5.72-2.89l-2.57-5.84c-1.57.89-3.1,1.55-4.59,1.98-1.48.43-3.29.64-5.41.64-2.57,0-4.52-.74-5.83-2.24-1.31-1.5-2.04-3.43-2.19-5.84l.1-.2h20.94v-4.9c0-4.9-1.26-8.78-3.79-11.66-2.51-2.89-6.14-4.34-10.84-4.34-5.01-.02-8.93,1.65-11.79,5.01-2.86,3.35-4.29,7.65-4.29,12.92v1.3c0,5.06,1.47,9.19,4.42,12.41,2.94,3.21,7.03,4.82,12.26,4.83h0Zm-.61-29.14c1.87,0,3.23.59,4.09,1.76.84,1.19,1.26,2.8,1.26,4.85v.72h-11.55l-.07-.17c.22-2.16.84-3.9,1.87-5.21,1.02-1.31,2.49-1.96,4.4-1.96h0Zm29.08-15.25v8.6h5.94v6.66h-5.94v17.88c0,1.36.28,2.34.85,2.92.58.58,1.33.88,2.26.88.5,0,.93-.03,1.3-.09.37-.06.79-.14,1.26-.28l.79,6.86c-.95.32-1.88.57-2.78.73-.9.16-1.87.23-2.94.24-3.27-.01-5.78-.91-7.54-2.7-1.76-1.79-2.65-4.64-2.65-8.53v-17.91h-5.13v-6.66h5.13v-8.6h9.45Zm24.56,44.4c-5.23-.01-9.33-1.62-12.26-4.83-2.95-3.21-4.42-7.34-4.42-12.41v-1.3c0-5.26,1.43-9.57,4.29-12.92,2.86-3.36,6.78-5.03,11.79-5.01,4.71,0,8.33,1.45,10.84,4.34,2.53,2.88,3.79,6.77,3.79,11.66v4.9h-20.94l-.1.2c.16,2.4.89,4.34,2.19,5.84,1.31,1.49,3.26,2.24,5.83,2.24,2.12,0,3.92-.21,5.41-.64,1.48-.43,3.01-1.1,4.59-1.98l2.57,5.84c-1.41,1.15-3.31,2.12-5.72,2.89-2.4.78-5.02,1.16-7.85,1.17h0Zm-.61-29.14c-1.9,0-3.38.65-4.4,1.96-1.03,1.31-1.65,3.05-1.87,5.21l.07.17h11.55v-.72c0-2.05-.42-3.67-1.26-4.85-.85-1.17-2.22-1.76-4.09-1.76h0Zm36.18,1.48l-3.47-.09c-1.41,0-2.57.29-3.48.87-.91.58-1.59,1.41-2.07,2.46v23.73h-9.45v-35.12h8.8l.42,5.2c.82-1.84,1.89-3.28,3.2-4.3,1.31-1.03,2.81-1.55,4.52-1.55.48,0,.92.04,1.32.12.4.08.81.17,1.22.28l-1.01,8.4h0Zm12.46,26.97h-9.48v-35.12h9.48v35.12h0Zm0-43.52h-9.48v-7.1h9.48v7.1h0Zm14.01,8.41l.42,5.03c1.17-1.79,2.61-3.19,4.32-4.19,1.71-1,3.62-1.5,5.75-1.5,3.54,0,6.31,1.14,8.31,3.43,1.98,2.28,2.98,5.88,2.98,10.82v21.51h-9.5v-21.49c0-2.5-.44-4.29-1.32-5.33-.88-1.05-2.19-1.58-3.94-1.58-1.41,0-2.65.27-3.71.8-1.07.53-1.96,1.26-2.65,2.19v25.41h-9.47v-35.12h8.82Zm47.12,35.12c-.34-.8-.64-1.64-.89-2.54-.25-.89-.43-1.79-.54-2.72-.97,1.72-2.26,3.13-3.85,4.25-1.61,1.13-3.51,1.68-5.72,1.69-3.68-.01-6.51-.95-8.5-2.85-1.99-1.89-2.99-4.48-2.99-7.74,0-3.43,1.33-6.1,3.98-8,2.65-1.89,6.51-2.84,11.6-2.84h5.33v-2.79c0-1.68-.44-3-1.33-3.93-.89-.92-2.22-1.38-3.97-1.38-1.53,0-2.71.37-3.56,1.12-.83.74-1.24,1.76-1.24,3.06h-9.13l-.06-.19c-.16-2.97,1.14-5.53,3.88-7.68,2.74-2.15,6.3-3.23,10.72-3.23s7.63,1.06,10.24,3.19c2.6,2.12,3.91,5.15,3.91,9.12v14.5c0,1.65.12,3.19.38,4.64.24,1.45.64,2.89,1.19,4.32h-9.45Zm-8.66-6.33c1.65,0,3.11-.41,4.42-1.24,1.3-.82,2.18-1.77,2.66-2.85v-4.97h-5.33c-2,0-3.53.5-4.55,1.5-1.03,1-1.55,2.22-1.55,3.67,0,1.2.39,2.14,1.15,2.84.78.71,1.84,1.06,3.2,1.06h0Zm39.69-20.65l-3.47-.09c-1.41,0-2.57.29-3.48.87-.91.58-1.59,1.41-2.07,2.46v23.73h-9.45v-35.12h8.8l.42,5.2c.82-1.84,1.89-3.28,3.2-4.3,1.31-1.03,2.81-1.55,4.52-1.55.48,0,.92.04,1.32.12.4.08.81.17,1.22.28l-1.01,8.4h0Zm12.46,26.97h-9.48v-35.12h9.48v35.12h0Zm0-43.52h-9.48v-7.1h9.48v7.1h0Zm26.05,43.52c-.34-.8-.64-1.64-.89-2.54-.25-.89-.43-1.79-.54-2.72-.97,1.72-2.26,3.13-3.85,4.25-1.61,1.13-3.51,1.68-5.72,1.69-3.68-.01-6.51-.95-8.5-2.85-1.99-1.89-2.99-4.48-2.99-7.74,0-3.43,1.33-6.1,3.98-8,2.65-1.89,6.51-2.84,11.6-2.84h5.33v-2.79c0-1.68-.44-3-1.33-3.93-.89-.92-2.22-1.38-3.97-1.38-1.53,0-2.71.37-3.56,1.12-.83.74-1.24,1.76-1.24,3.06h-9.13l-.06-.19c-.16-2.97,1.14-5.53,3.88-7.68,2.74-2.15,6.3-3.23,10.72-3.23s7.63,1.06,10.24,3.19c2.6,2.12,3.91,5.15,3.91,9.12v14.5c0,1.65.12,3.19.38,4.64.24,1.45.64,2.89,1.19,4.32h-9.45Zm-8.66-6.33c1.65,0,3.11-.41,4.42-1.24,1.3-.82,2.18-1.77,2.66-2.85v-4.97h-5.33c-2,0-3.53.5-4.55,1.5-1.03,1-1.55,2.22-1.55,3.67,0,1.2.39,2.14,1.15,2.84.78.71,1.84,1.06,3.2,1.06Z"/>
      <path class="cls-1" d="m247.66,172.05v40.12c0,6.64-2.17,11.83-6.47,15.57-4.32,3.74-9.89,5.59-16.68,5.61-6.56-.01-11.93-1.88-16.1-5.62-4.18-3.75-6.26-8.94-6.26-15.55v-40.12h8.17v40.12c0,4.63,1.32,8.24,3.97,10.85,2.63,2.62,6.05,3.92,10.23,3.92,4.42,0,8.03-1.3,10.81-3.92,2.78-2.61,4.16-6.22,4.16-10.85v-40.12h8.19Zm55.88,60.42h-8.17l-29.09-46.14-.25.09v46.06h-8.17v-60.42h8.17l29.09,46.1.25-.09v-46.02h8.17v60.42h0Zm52.43-53.99h-19.91v53.99h-8.17v-53.99h-19.67v-6.43h47.76v6.43Z"/>
      <g>
        <path class="cls-3" d="m.2,74.12c25.69.51,45.26,14.44,54.68,37.75v104.67l-10.48-34.33c-1.17-3.83-2.39-6.82-3.7-8.93-1.31-2.11-2.83-3.62-4.56-4.51-1.73-.9-3.9-1.35-6.53-1.35s-4.82.45-6.58,1.35c-1.76.89-3.28,2.4-4.56,4.51-1.28,2.11-2.5,5.09-3.65,8.93L.2,229.94V74.12H.2Zm39.59,135.94l-8.07-27.66c-.45-1.66-1.15-2.5-2.11-2.5s-1.66.83-2.11,2.5l-8.07,27.66h20.36Zm7.32,25.16l-4.35-15.08h-26.31l-4.35,15.08h35.01Zm8.73-16.28l-.2.15-.05-.15h.24Z"/>
        <path class="cls-4" d="m58.17,168.65h45.12v-63.86c0-3.42-.12-4.62-1.05-7.95-6.39-18.45-18.63-30.19-44.06-32.67v104.48h0Zm0,47.98l35.08-37.22h-35.08v37.22h0Zm45.12-31.06v40.91h-29.51c-1.44,0-2.56-.26-3.38-.78-.81-.52-1.22-1.53-1.22-3.03v-.98l34.11-36.11Z"/>
        <path class="cls-2" d="m55.25,104.36C44.6,82.91,24.94,70.46.26,69.97h-.26V28.5C21.64,10.7,49.36,0,79.57,0c32.31,0,61.76,12.23,83.99,32.31v50.64h-.18c-26.94.64-47.39,14.02-57.18,38.22v-18.75c0-3.07-.02-3.89-.91-6.87-7.56-22.6-22.62-33.15-46.84-35.52l-3.2-.31v44.64Z"/>
        <path class="cls-5" d="m107.02,236.54h16.47l-.1-.16c-1.43-2.29-2.69-5.48-3.86-9.53l-12.5-43.02v52.72h0Zm56.43-149.44v82.23h-10.46l-15.77,57.31c-.48,1.79-1.24,2.68-2.27,2.68s-1.78-.9-2.27-2.68l-15.77-58.08h-10.07v-38.4c8.82-29.57,30.92-42.45,56.61-43.05h0Zm-16.59,149.44h16.6v-53.2l-12.63,43.5c-1.17,4.05-2.46,7.23-3.86,9.53l-.1.16Z"/>
      </g>
    </g>
  </g>
</svg>