<svg width="1877" height="688" viewBox="0 0 1877 688" fill="none" xmlns="http://www.w3.org/2000/svg">
<path d="M108.298 146.057V48.8621H148.286C156.895 48.8621 164.254 50.2506 170.364 53.0276C176.565 55.8045 181.333 59.7849 184.665 64.9686C187.997 70.1523 189.664 76.3079 189.664 83.4355C189.664 90.5631 187.997 96.7188 184.665 101.902C181.333 107.086 176.565 111.067 170.364 113.844C164.254 116.62 156.895 118.009 148.286 118.009H118.295L126.348 109.539V146.057H108.298ZM126.348 111.483L118.295 102.736H147.453C155.414 102.736 161.385 101.069 165.365 97.737C169.438 94.3121 171.474 89.5449 171.474 83.4355C171.474 77.2336 169.438 72.4664 165.365 69.1341C161.385 65.8017 155.414 64.1355 147.453 64.1355H118.295L126.348 55.2491V111.483Z" fill="white"/>
<path d="M207.689 146.057V48.8621H247.678C256.286 48.8621 263.645 50.2506 269.755 53.0276C275.957 55.8045 280.724 59.7849 284.056 64.9686C287.388 70.1523 289.055 76.3079 289.055 83.4355C289.055 90.5631 287.388 96.7188 284.056 101.902C280.724 106.994 275.957 110.928 269.755 113.705C263.645 116.389 256.286 117.731 247.678 117.731H217.686L225.739 109.539V146.057H207.689ZM271.282 146.057L246.706 110.789H266.006L290.721 146.057H271.282ZM225.739 111.483L217.686 102.874H246.844C254.805 102.874 260.776 101.162 264.756 97.737C268.829 94.3121 270.865 89.5449 270.865 83.4355C270.865 77.2336 268.829 72.4664 264.756 69.1341C260.776 65.8017 254.805 64.1355 246.844 64.1355H217.686L225.739 55.2491V111.483Z" fill="white"/>
<path d="M325.911 89.2672H374.231V104.124H325.911V89.2672ZM327.3 130.922H382.145V146.057H309.25V48.8621H380.202V63.9966H327.3V130.922Z" fill="white"/>
<path d="M485.628 147.445C478.223 147.445 471.327 146.242 464.94 143.835C458.645 141.336 453.137 137.864 448.417 133.421C443.788 128.886 440.178 123.563 437.586 117.454C434.995 111.344 433.699 104.679 433.699 97.4593C433.699 90.2391 434.995 83.5744 437.586 77.465C440.178 71.3557 443.835 66.0794 448.555 61.6362C453.276 57.1005 458.784 53.6292 465.079 51.2225C471.373 48.7232 478.269 47.4736 485.767 47.4736C493.728 47.4736 500.994 48.8621 507.566 51.6391C514.139 54.3235 519.693 58.3501 524.228 63.7189L512.565 74.688C509.047 70.8928 505.113 68.0696 500.763 66.2182C496.412 64.2743 491.691 63.3024 486.6 63.3024C481.509 63.3024 476.834 64.1355 472.576 65.8017C468.411 67.4679 464.755 69.8283 461.607 72.883C458.553 75.9377 456.146 79.5478 454.387 83.7132C452.721 87.8787 451.888 92.4607 451.888 97.4593C451.888 102.458 452.721 107.04 454.387 111.205C456.146 115.371 458.553 118.981 461.607 122.036C464.755 125.09 468.411 127.451 472.576 129.117C476.834 130.783 481.509 131.616 486.6 131.616C491.691 131.616 496.412 130.691 500.763 128.839C505.113 126.895 509.047 123.979 512.565 120.092L524.228 131.2C519.693 136.476 514.139 140.503 507.566 143.28C500.994 146.057 493.681 147.445 485.628 147.445Z" fill="white"/>
<path d="M583.182 147.445C569.852 147.445 559.392 143.696 551.802 136.198C544.304 128.7 540.555 117.87 540.555 103.708V48.8621H558.605V103.013C558.605 113.01 560.734 120.277 564.992 124.813C569.343 129.348 575.452 131.616 583.321 131.616C591.189 131.616 597.252 129.348 601.51 124.813C605.768 120.277 607.897 113.01 607.897 103.013V48.8621H625.67V103.708C625.67 117.87 621.874 128.7 614.284 136.198C606.786 143.696 596.419 147.445 583.182 147.445Z" fill="white"/>
<path d="M650.949 146.057V48.8621H665.806L708.294 119.814H700.518L742.312 48.8621H757.168L757.307 146.057H740.229L740.09 75.66H743.7L708.155 134.949H700.101L664.001 75.66H668.166V146.057H650.949Z" fill="white"/>
<path d="M783.561 146.057V48.8621H829.103C840.766 48.8621 849.653 51.1762 855.762 55.8045C861.872 60.3403 864.926 66.4496 864.926 74.1326C864.926 79.3163 863.723 83.7595 861.316 87.4622C858.909 91.0722 855.67 93.8955 851.597 95.932C847.616 97.8759 843.266 98.8478 838.545 98.8478L841.044 93.8492C846.506 93.8492 851.412 94.8675 855.762 96.9039C860.113 98.8478 863.538 101.717 866.037 105.513C868.629 109.308 869.925 114.029 869.925 119.675C869.925 128.006 866.731 134.486 860.344 139.114C853.957 143.742 844.469 146.057 831.88 146.057H783.561ZM801.611 131.894H830.769C837.527 131.894 842.71 130.783 846.32 128.562C849.931 126.34 851.736 122.776 851.736 117.87C851.736 113.057 849.931 109.539 846.32 107.318C842.71 105.003 837.527 103.846 830.769 103.846H800.223V89.8226H827.159C833.454 89.8226 838.267 88.7118 841.6 86.4902C845.024 84.2686 846.737 80.9363 846.737 76.4931C846.737 71.9573 845.024 68.5787 841.6 66.3571C838.267 64.1355 833.454 63.0247 827.159 63.0247H801.611V131.894Z" fill="white"/>
<path d="M889.189 146.057V48.8621H929.178C937.786 48.8621 945.145 50.2506 951.255 53.0276C957.457 55.8045 962.224 59.7849 965.556 64.9686C968.888 70.1523 970.555 76.3079 970.555 83.4355C970.555 90.5631 968.888 96.7188 965.556 101.902C962.224 106.994 957.457 110.928 951.255 113.705C945.145 116.389 937.786 117.731 929.178 117.731H899.186L907.239 109.539V146.057H889.189ZM952.782 146.057L928.206 110.789H947.506L972.221 146.057H952.782ZM907.239 111.483L899.186 102.874H928.344C936.305 102.874 942.276 101.162 946.256 97.737C950.329 94.3121 952.365 89.5449 952.365 83.4355C952.365 77.2336 950.329 72.4664 946.256 69.1341C942.276 65.8017 936.305 64.1355 928.344 64.1355H899.186L907.239 55.2491V111.483Z" fill="white"/>
<path d="M1007.41 89.2672H1055.73V104.124H1007.41V89.2672ZM1008.8 130.922H1063.65V146.057H990.75V48.8621H1061.7V63.9966H1008.8V130.922Z" fill="white"/>
<path d="M104.966 315.057V217.862H127.598L167.864 283.954H155.923L195.079 217.862H217.711L217.989 315.057H192.718L192.441 256.323H196.745L167.448 305.476H155.229L125.099 256.323H130.375V315.057H104.966Z" fill="white"/>
<path d="M282.29 317C267.942 317 256.742 313.066 248.689 305.198C240.635 297.33 236.609 286.176 236.609 271.736V217.862H264.101V270.902C264.101 279.233 265.721 285.204 268.961 288.814C272.293 292.424 276.829 294.229 282.568 294.229C288.307 294.229 292.796 292.424 296.036 288.814C299.276 285.204 300.896 279.233 300.896 270.902V217.862H327.971V271.736C327.971 286.176 323.945 297.33 315.892 305.198C307.838 313.066 296.638 317 282.29 317Z" fill="white"/>
<path d="M346.596 315.057V217.862H369.228L422.824 282.566H412.133V217.862H439.069V315.057H416.437L362.841 250.353H373.532V315.057H346.596Z" fill="white"/>
<path d="M458.461 315.057V217.862H504.421C515.158 217.862 524.6 219.852 532.746 223.833C540.892 227.813 547.232 233.413 551.768 240.633C556.396 247.854 558.711 256.462 558.711 266.459C558.711 276.364 556.396 284.973 551.768 292.285C547.232 299.505 540.892 305.106 532.746 309.086C524.6 313.066 515.158 315.057 504.421 315.057H458.461ZM485.954 293.118H503.31C508.864 293.118 513.677 292.1 517.75 290.064C521.916 287.935 525.155 284.88 527.47 280.9C529.784 276.827 530.941 272.013 530.941 266.459C530.941 260.813 529.784 255.999 527.47 252.019C525.155 248.039 521.916 245.03 517.75 242.994C513.677 240.865 508.864 239.8 503.31 239.8H485.954V293.118Z" fill="white"/>
<path d="M573.175 315.057V217.862H600.667V315.057H573.175Z" fill="white"/>
<path d="M608.563 315.057L651.467 217.862H678.543L721.586 315.057H692.983L659.382 231.33H670.212L636.61 315.057H608.563ZM632.028 296.173L639.11 275.901H686.596L693.677 296.173H632.028Z" fill="white"/>
<path d="M729.38 315.057V217.862H756.872V293.257H803.248V315.057H729.38Z" fill="white"/>
<path d="M854.534 315.057V217.862H900.493C911.231 217.862 920.673 219.852 928.819 223.833C936.964 227.813 943.305 233.413 947.841 240.633C952.469 247.854 954.783 256.462 954.783 266.459C954.783 276.364 952.469 284.973 947.841 292.285C943.305 299.505 936.964 305.106 928.819 309.086C920.673 313.066 911.231 315.057 900.493 315.057H854.534ZM882.026 293.118H899.383C904.937 293.118 909.75 292.1 913.823 290.064C917.988 287.935 921.228 284.88 923.542 280.9C925.856 276.827 927.014 272.013 927.014 266.459C927.014 260.813 925.856 255.999 923.542 252.019C921.228 248.039 917.988 245.03 913.823 242.994C909.75 240.865 904.937 239.8 899.383 239.8H882.026V293.118Z" fill="white"/>
<path d="M994.518 255.49H1039.64V276.04H994.518V255.49ZM996.462 293.813H1047.28V315.057H969.248V217.862H1045.48V239.106H996.462V293.813Z" fill="white"/>
<path d="M1102.94 315.057V217.862H1147.38C1156.26 217.862 1163.9 219.297 1170.29 222.166C1176.77 225.036 1181.76 229.201 1185.28 234.663C1188.8 240.032 1190.56 246.419 1190.56 253.824C1190.56 261.137 1188.8 267.478 1185.28 272.846C1181.76 278.215 1176.77 282.381 1170.29 285.343C1163.9 288.212 1156.26 289.647 1147.38 289.647H1118.22L1130.44 277.706V315.057H1102.94ZM1130.44 280.622L1118.22 267.987H1145.71C1151.45 267.987 1155.71 266.737 1158.48 264.238C1161.35 261.738 1162.79 258.267 1162.79 253.824C1162.79 249.288 1161.35 245.771 1158.48 243.271C1155.71 240.772 1151.45 239.523 1145.71 239.523H1118.22L1130.44 226.887V280.622Z" fill="white"/>
<path d="M1254.33 317C1246.56 317 1239.38 315.751 1232.81 313.251C1226.24 310.752 1220.5 307.235 1215.59 302.699C1210.78 298.071 1207.03 292.702 1204.35 286.592C1201.66 280.483 1200.32 273.772 1200.32 266.459C1200.32 259.147 1201.66 252.436 1204.35 246.326C1207.03 240.217 1210.78 234.894 1215.59 230.359C1220.5 225.73 1226.24 222.166 1232.81 219.667C1239.38 217.168 1246.56 215.918 1254.33 215.918C1262.2 215.918 1269.37 217.168 1275.85 219.667C1282.43 222.166 1288.12 225.73 1292.93 230.359C1297.75 234.894 1301.49 240.217 1304.18 246.326C1306.96 252.436 1308.34 259.147 1308.34 266.459C1308.34 273.772 1306.96 280.529 1304.18 286.731C1301.49 292.841 1297.75 298.163 1292.93 302.699C1288.12 307.235 1282.43 310.752 1275.85 313.251C1269.37 315.751 1262.2 317 1254.33 317ZM1254.33 294.229C1258.03 294.229 1261.46 293.581 1264.61 292.285C1267.85 290.989 1270.62 289.138 1272.94 286.731C1275.34 284.232 1277.2 281.27 1278.49 277.845C1279.88 274.42 1280.57 270.625 1280.57 266.459C1280.57 262.201 1279.88 258.406 1278.49 255.074C1277.2 251.649 1275.34 248.733 1272.94 246.326C1270.62 243.827 1267.85 241.929 1264.61 240.633C1261.46 239.337 1258.03 238.689 1254.33 238.689C1250.63 238.689 1247.16 239.337 1243.92 240.633C1240.77 241.929 1237.99 243.827 1235.59 246.326C1233.27 248.733 1231.42 251.649 1230.03 255.074C1228.74 258.406 1228.09 262.201 1228.09 266.459C1228.09 270.625 1228.74 274.42 1230.03 277.845C1231.42 281.27 1233.27 284.232 1235.59 286.731C1237.99 289.138 1240.77 290.989 1243.92 292.285C1247.16 293.581 1250.63 294.229 1254.33 294.229Z" fill="white"/>
<path d="M1322.74 315.057V217.862H1350.24V293.257H1396.61V315.057H1322.74Z" fill="white"/>
<path d="M1407.49 315.057V217.862H1434.98V315.057H1407.49ZM1407.63 209.948L1426.23 188.843H1452.62L1426.51 209.948H1407.63Z" fill="white"/>
<path d="M1475.23 315.057V239.661H1445.38V217.862H1532.44V239.661H1502.72V315.057H1475.23Z" fill="white"/>
<path d="M1542.68 315.057V217.862H1570.17V315.057H1542.68Z" fill="white"/>
<path d="M1638.19 317C1630.51 317 1623.38 315.797 1616.81 313.39C1610.33 310.891 1604.68 307.374 1599.87 302.838C1595.15 298.302 1591.44 292.98 1588.76 286.87C1586.07 280.668 1584.73 273.865 1584.73 266.459C1584.73 259.054 1586.07 252.297 1588.76 246.187C1591.44 239.985 1595.15 234.617 1599.87 230.081C1604.68 225.545 1610.33 222.074 1616.81 219.667C1623.38 217.168 1630.51 215.918 1638.19 215.918C1647.17 215.918 1655.17 217.492 1662.21 220.639C1669.34 223.786 1675.26 228.322 1679.98 234.246L1662.49 250.075C1659.34 246.372 1655.87 243.549 1652.07 241.605C1648.37 239.661 1644.21 238.689 1639.58 238.689C1635.6 238.689 1631.94 239.337 1628.61 240.633C1625.28 241.929 1622.41 243.827 1620 246.326C1617.68 248.733 1615.83 251.649 1614.45 255.074C1613.15 258.499 1612.5 262.294 1612.5 266.459C1612.5 270.625 1613.15 274.42 1614.45 277.845C1615.83 281.27 1617.68 284.232 1620 286.731C1622.41 289.138 1625.28 290.989 1628.61 292.285C1631.94 293.581 1635.6 294.229 1639.58 294.229C1644.21 294.229 1648.37 293.257 1652.07 291.313C1655.87 289.369 1659.34 286.546 1662.49 282.844L1679.98 298.672C1675.26 304.504 1669.34 309.04 1662.21 312.28C1655.17 315.427 1647.17 317 1638.19 317Z" fill="white"/>
<path d="M1678.95 315.057L1721.85 217.862H1748.93L1791.97 315.057H1763.37L1729.77 231.33H1740.6L1707 315.057H1678.95ZM1702.41 296.173L1709.5 275.901H1756.98L1764.06 296.173H1702.41Z" fill="white"/>
<path d="M1833.92 317C1825.96 317 1818.28 316.028 1810.87 314.085C1803.56 312.048 1797.59 309.456 1792.96 306.309L1801.99 286.037C1806.34 288.814 1811.34 291.128 1816.98 292.979C1822.72 294.738 1828.42 295.618 1834.06 295.618C1837.86 295.618 1840.91 295.294 1843.23 294.646C1845.54 293.905 1847.21 292.98 1848.22 291.869C1849.34 290.665 1849.89 289.277 1849.89 287.703C1849.89 285.482 1848.87 283.723 1846.84 282.427C1844.8 281.131 1842.16 280.067 1838.92 279.233C1835.68 278.4 1832.07 277.567 1828.09 276.734C1824.2 275.901 1820.27 274.837 1816.29 273.541C1812.4 272.245 1808.84 270.579 1805.6 268.542C1802.36 266.413 1799.72 263.682 1797.68 260.35C1795.65 256.925 1794.63 252.621 1794.63 247.437C1794.63 241.605 1796.2 236.329 1799.35 231.608C1802.59 226.887 1807.4 223.092 1813.79 220.223C1820.18 217.353 1828.14 215.918 1837.67 215.918C1844.06 215.918 1850.31 216.659 1856.42 218.14C1862.62 219.528 1868.13 221.611 1872.94 224.388L1864.47 244.799C1859.84 242.3 1855.26 240.448 1850.72 239.245C1846.19 237.949 1841.79 237.301 1837.53 237.301C1833.74 237.301 1830.68 237.718 1828.37 238.551C1826.06 239.291 1824.39 240.309 1823.37 241.605C1822.35 242.901 1821.84 244.382 1821.84 246.048C1821.84 248.177 1822.82 249.89 1824.76 251.186C1826.8 252.389 1829.43 253.407 1832.67 254.241C1836.01 254.981 1839.62 255.768 1843.5 256.601C1847.48 257.434 1851.42 258.499 1855.31 259.795C1859.29 260.998 1862.9 262.664 1866.14 264.793C1869.38 266.83 1871.97 269.56 1873.91 272.985C1875.95 276.318 1876.97 280.529 1876.97 285.62C1876.97 291.267 1875.35 296.497 1872.11 301.31C1868.96 306.031 1864.19 309.827 1857.81 312.696C1851.51 315.566 1843.55 317 1833.92 317Z" fill="white"/>
<path d="M104.966 484.057V386.862H149.397C158.284 386.862 165.92 388.297 172.307 391.166C178.787 394.036 183.786 398.201 187.303 403.663C190.821 409.032 192.579 415.419 192.579 422.824C192.579 430.137 190.821 436.478 187.303 441.846C183.786 447.215 178.787 451.381 172.307 454.343C165.92 457.212 158.284 458.647 149.397 458.647H120.239L132.458 446.706V484.057H104.966ZM132.458 449.622L120.239 436.987H147.731C153.47 436.987 157.728 435.737 160.505 433.238C163.375 430.738 164.81 427.267 164.81 422.824C164.81 418.288 163.375 414.771 160.505 412.271C157.728 409.772 153.47 408.523 147.731 408.523H120.239L132.458 395.887V449.622Z" fill="white"/>
<path d="M249.883 486C235.535 486 224.335 482.066 216.281 474.198C208.228 466.33 204.201 455.176 204.201 440.736V386.862H231.694V439.902C231.694 448.233 233.314 454.204 236.553 457.814C239.886 461.424 244.421 463.229 250.161 463.229C255.9 463.229 260.389 461.424 263.629 457.814C266.869 454.204 268.489 448.233 268.489 439.902V386.862H295.564V440.736C295.564 455.176 291.538 466.33 283.484 474.198C275.431 482.066 264.231 486 249.883 486ZM236.553 378.948L255.159 357.843H281.54L255.437 378.948H236.553Z" fill="white"/>
<path d="M314.188 484.057V386.862H363.897C376.671 386.862 386.205 389.223 392.499 393.943C398.794 398.572 401.941 404.681 401.941 412.271C401.941 417.27 400.599 421.667 397.915 425.462C395.323 429.165 391.62 432.127 386.807 434.349C382.086 436.478 376.439 437.542 369.867 437.542L372.644 430.877C379.494 430.877 385.464 431.942 390.556 434.071C395.647 436.107 399.581 439.116 402.358 443.096C405.227 446.984 406.662 451.751 406.662 457.397C406.662 465.821 403.237 472.393 396.387 477.114C389.63 481.742 379.725 484.057 366.673 484.057H314.188ZM341.403 464.201H364.452C369.173 464.201 372.737 463.414 375.143 461.841C377.643 460.174 378.892 457.675 378.892 454.343C378.892 451.01 377.643 448.557 375.143 446.984C372.737 445.318 369.173 444.484 364.452 444.484H339.459V425.462H360.286C364.915 425.462 368.386 424.675 370.7 423.102C373.014 421.528 374.171 419.168 374.171 416.02C374.171 412.873 373.014 410.559 370.7 409.078C368.386 407.504 364.915 406.718 360.286 406.718H341.403V464.201Z" fill="white"/>
<path d="M420.902 484.057V386.862H448.394V462.257H494.769V484.057H420.902Z" fill="white"/>
<path d="M505.648 484.057V386.862H533.141V484.057H505.648Z" fill="white"/>
<path d="M601.158 486C593.475 486 586.348 484.797 579.776 482.39C573.296 479.891 567.649 476.374 562.836 471.838C558.115 467.302 554.412 461.98 551.728 455.87C549.044 449.668 547.701 442.865 547.701 435.459C547.701 428.054 549.044 421.297 551.728 415.187C554.412 408.985 558.115 403.617 562.836 399.081C567.649 394.545 573.296 391.074 579.776 388.667C586.348 386.168 593.475 384.918 601.158 384.918C610.137 384.918 618.144 386.492 625.179 389.639C632.307 392.786 638.231 397.322 642.952 403.246L625.457 419.075C622.31 415.372 618.838 412.549 615.043 410.605C611.341 408.661 607.175 407.689 602.547 407.689C598.566 407.689 594.91 408.337 591.578 409.633C588.245 410.929 585.376 412.827 582.969 415.326C580.655 417.733 578.804 420.649 577.415 424.074C576.119 427.499 575.471 431.294 575.471 435.459C575.471 439.625 576.119 443.42 577.415 446.845C578.804 450.27 580.655 453.232 582.969 455.731C585.376 458.138 588.245 459.989 591.578 461.285C594.91 462.581 598.566 463.229 602.547 463.229C607.175 463.229 611.341 462.257 615.043 460.313C618.838 458.369 622.31 455.546 625.457 451.844L642.952 467.672C638.231 473.504 632.307 478.04 625.179 481.28C618.144 484.427 610.137 486 601.158 486Z" fill="white"/>
<path d="M641.919 484.057L684.824 386.862H711.899L754.943 484.057H726.34L692.738 400.33H703.568L669.967 484.057H641.919ZM665.385 465.173L672.466 444.901H719.953L727.034 465.173H665.385Z" fill="white"/>
<path d="M796.893 486C788.933 486 781.25 485.028 773.844 483.085C766.532 481.048 760.561 478.456 755.933 475.309L764.958 455.037C769.309 457.814 774.307 460.128 779.954 461.979C785.693 463.738 791.386 464.618 797.032 464.618C800.827 464.618 803.882 464.294 806.196 463.646C808.51 462.905 810.177 461.98 811.195 460.869C812.306 459.665 812.861 458.277 812.861 456.703C812.861 454.482 811.843 452.723 809.806 451.427C807.77 450.131 805.132 449.067 801.892 448.233C798.652 447.4 795.042 446.567 791.062 445.734C787.174 444.901 783.24 443.837 779.26 442.541C775.372 441.245 771.808 439.579 768.568 437.542C765.328 435.413 762.69 432.682 760.654 429.35C758.617 425.925 757.599 421.621 757.599 416.437C757.599 410.605 759.173 405.329 762.32 400.608C765.56 395.887 770.373 392.092 776.76 389.223C783.147 386.353 791.108 384.918 800.642 384.918C807.029 384.918 813.278 385.659 819.387 387.14C825.589 388.528 831.097 390.611 835.91 393.388L827.44 413.799C822.812 411.3 818.23 409.448 813.694 408.245C809.158 406.949 804.761 406.301 800.503 406.301C796.708 406.301 793.654 406.718 791.339 407.551C789.025 408.291 787.359 409.309 786.341 410.605C785.323 411.901 784.813 413.382 784.813 415.048C784.813 417.177 785.785 418.89 787.729 420.186C789.766 421.389 792.404 422.407 795.644 423.241C798.976 423.981 802.586 424.768 806.474 425.601C810.454 426.434 814.388 427.499 818.276 428.795C822.256 429.998 825.867 431.664 829.106 433.793C832.346 435.83 834.938 438.56 836.882 441.985C838.918 445.318 839.937 449.529 839.937 454.62C839.937 460.267 838.317 465.497 835.077 470.31C831.93 475.031 827.163 478.827 820.775 481.696C814.481 484.566 806.52 486 796.893 486Z" fill="white"/>
<path d="M153.285 654.445C145.88 654.445 138.984 653.242 132.597 650.835C126.302 648.336 120.794 644.864 116.073 640.421C111.445 635.886 107.835 630.563 105.243 624.454C102.651 618.344 101.355 611.679 101.355 604.459C101.355 597.239 102.651 590.574 105.243 584.465C107.835 578.356 111.491 573.079 116.212 568.636C120.933 564.1 126.441 560.629 132.735 558.223C139.03 555.723 145.926 554.474 153.424 554.474C161.385 554.474 168.651 555.862 175.223 558.639C181.795 561.323 187.349 565.35 191.885 570.719L180.222 581.688C176.704 577.893 172.77 575.07 168.42 573.218C164.069 571.274 159.348 570.302 154.257 570.302C149.166 570.302 144.491 571.136 140.233 572.802C136.068 574.468 132.411 576.828 129.264 579.883C126.209 582.938 123.803 586.548 122.044 590.713C120.378 594.879 119.545 599.461 119.545 604.459C119.545 609.458 120.378 614.04 122.044 618.205C123.803 622.371 126.209 625.981 129.264 629.036C132.411 632.09 136.068 634.451 140.233 636.117C144.491 637.783 149.166 638.616 154.257 638.616C159.348 638.616 164.069 637.691 168.42 635.839C172.77 633.895 176.704 630.98 180.222 627.092L191.885 638.2C187.349 643.476 181.795 647.503 175.223 650.28C168.651 653.057 161.338 654.445 153.285 654.445Z" fill="white"/>
<path d="M193.401 653.057L237.138 555.862H254.911L298.787 653.057H279.904L242.275 565.443H249.496L212.006 653.057H193.401ZM213.534 630.563L218.393 616.4H270.878L275.738 630.563H213.534Z" fill="white"/>
<path d="M311.148 653.057V555.862H351.136C359.745 555.862 367.104 557.251 373.214 560.028C379.415 562.805 384.183 566.785 387.515 571.969C390.847 577.152 392.514 583.308 392.514 590.436C392.514 597.563 390.847 603.719 387.515 608.902C384.183 614.086 379.415 618.067 373.214 620.844C367.104 623.62 359.745 625.009 351.136 625.009H321.145L329.198 616.539V653.057H311.148ZM329.198 618.483L321.145 609.736H350.303C358.264 609.736 364.235 608.069 368.215 604.737C372.288 601.312 374.324 596.545 374.324 590.436C374.324 584.234 372.288 579.466 368.215 576.134C364.235 572.802 358.264 571.135 350.303 571.135H321.145L329.198 562.249V618.483Z" fill="white"/>
<path d="M410.539 653.057V555.862H428.589V653.057H410.539ZM407.901 547.948L426.646 528.925H447.056L422.897 547.948H407.901Z" fill="white"/>
<path d="M474.595 653.057V571.135H442.382V555.862H524.859V571.135H492.646V653.057H474.595Z" fill="white"/>
<path d="M578.436 654.445C565.106 654.445 554.646 650.696 547.056 643.198C539.558 635.7 535.809 624.87 535.809 610.708V555.862H553.86V610.013C553.86 620.01 555.989 627.277 560.247 631.813C564.597 636.348 570.707 638.616 578.575 638.616C586.443 638.616 592.506 636.348 596.764 631.813C601.022 627.277 603.151 620.01 603.151 610.013V555.862H620.924V610.708C620.924 624.87 617.129 635.7 609.538 643.198C602.04 650.696 591.673 654.445 578.436 654.445Z" fill="white"/>
<path d="M646.203 653.057V555.862H664.253V637.783H715.072V653.057H646.203Z" fill="white"/>
<path d="M773.102 654.445C765.512 654.445 758.523 653.195 752.136 650.696C745.749 648.197 740.195 644.726 735.474 640.282C730.753 635.747 727.097 630.47 724.505 624.454C721.913 618.344 720.617 611.679 720.617 604.459C720.617 597.239 721.913 590.621 724.505 584.604C727.097 578.495 730.753 573.218 735.474 568.775C740.195 564.239 745.749 560.722 752.136 558.223C758.523 555.723 765.466 554.474 772.964 554.474C780.554 554.474 787.496 555.723 793.791 558.223C800.178 560.722 805.732 564.239 810.453 568.775C815.174 573.218 818.83 578.495 821.422 584.604C824.014 590.621 825.31 597.239 825.31 604.459C825.31 611.679 824.014 618.344 821.422 624.454C818.83 630.563 815.174 635.839 810.453 640.282C805.732 644.726 800.178 648.197 793.791 650.696C787.496 653.195 780.6 654.445 773.102 654.445ZM772.964 638.616C777.87 638.616 782.405 637.783 786.571 636.117C790.736 634.451 794.346 632.09 797.401 629.036C800.456 625.888 802.816 622.278 804.482 618.205C806.241 614.04 807.12 609.458 807.12 604.459C807.12 599.461 806.241 594.925 804.482 590.852C802.816 586.687 800.456 583.077 797.401 580.022C794.346 576.875 790.736 574.468 786.571 572.802C782.405 571.136 777.87 570.302 772.964 570.302C768.058 570.302 763.522 571.136 759.356 572.802C755.283 574.468 751.673 576.875 748.526 580.022C745.471 583.077 743.065 586.687 741.306 590.852C739.64 594.925 738.807 599.461 738.807 604.459C738.807 609.365 739.64 613.901 741.306 618.067C743.065 622.232 745.471 625.888 748.526 629.036C751.581 632.09 755.191 634.451 759.356 636.117C763.522 637.783 768.058 638.616 772.964 638.616Z" fill="white"/>
<path d="M902.533 653.057V571.135H870.32V555.862H952.796V571.135H920.583V653.057H902.533Z" fill="white"/>
<path d="M1006.37 654.445C993.044 654.445 982.584 650.696 974.994 643.198C967.496 635.7 963.747 624.87 963.747 610.708V555.862H981.797V610.013C981.797 620.01 983.926 627.277 988.184 631.813C992.535 636.348 998.644 638.616 1006.51 638.616C1014.38 638.616 1020.44 636.348 1024.7 631.813C1028.96 627.277 1031.09 620.01 1031.09 610.013V555.862H1048.86V610.708C1048.86 624.87 1045.07 635.7 1037.48 643.198C1029.98 650.696 1019.61 654.445 1006.37 654.445Z" fill="white"/>
<path d="M1119.13 654.445C1111.72 654.445 1104.83 653.242 1098.44 650.835C1092.14 648.336 1086.64 644.864 1081.92 640.421C1077.29 635.886 1073.68 630.563 1071.09 624.454C1068.49 618.344 1067.2 611.679 1067.2 604.459C1067.2 597.239 1068.49 590.574 1071.09 584.465C1073.68 578.356 1077.33 573.079 1082.05 568.636C1086.78 564.1 1092.28 560.629 1098.58 558.223C1104.87 555.723 1111.77 554.474 1119.27 554.474C1127.23 554.474 1134.49 555.862 1141.07 558.639C1147.64 561.323 1153.19 565.35 1157.73 570.719L1146.06 581.688C1142.55 577.893 1138.61 575.07 1134.26 573.218C1129.91 571.274 1125.19 570.302 1120.1 570.302C1115.01 570.302 1110.33 571.136 1106.08 572.802C1101.91 574.468 1098.25 576.828 1095.11 579.883C1092.05 582.938 1089.65 586.548 1087.89 590.713C1086.22 594.879 1085.39 599.461 1085.39 604.459C1085.39 609.458 1086.22 614.04 1087.89 618.205C1089.65 622.371 1092.05 625.981 1095.11 629.036C1098.25 632.09 1101.91 634.451 1106.08 636.117C1110.33 637.783 1115.01 638.616 1120.1 638.616C1125.19 638.616 1129.91 637.691 1134.26 635.839C1138.61 633.895 1142.55 630.98 1146.06 627.092L1157.73 638.2C1153.19 643.476 1147.64 647.503 1141.07 650.28C1134.49 653.057 1127.18 654.445 1119.13 654.445Z" fill="white"/>
<path d="M1216.68 654.445C1203.35 654.445 1192.89 650.696 1185.3 643.198C1177.8 635.7 1174.05 624.87 1174.05 610.708V555.862H1192.1V610.013C1192.1 620.01 1194.23 627.277 1198.49 631.813C1202.84 636.348 1208.95 638.616 1216.82 638.616C1224.69 638.616 1230.75 636.348 1235.01 631.813C1239.27 627.277 1241.4 620.01 1241.4 610.013V555.862H1259.17V610.708C1259.17 624.87 1255.37 635.7 1247.78 643.198C1240.29 650.696 1229.92 654.445 1216.68 654.445Z" fill="white"/>
<path d="M1284.45 653.057V555.862H1299.31L1341.79 626.814H1334.02L1375.81 555.862H1390.67L1390.81 653.057H1373.73L1373.59 582.66H1377.2L1341.65 641.949H1333.6L1297.5 582.66H1301.67V653.057H1284.45Z" fill="white"/>
<path d="M1403.31 653.057L1447.05 555.862H1464.82L1508.7 653.057H1489.82L1452.19 565.443H1459.41L1421.92 653.057H1403.31ZM1423.45 630.563L1428.31 616.4H1480.79L1485.65 630.563H1423.45ZM1444.27 547.948L1463.02 528.925H1483.43L1459.27 547.948H1444.27Z" fill="white"/>
<path d="M1521.06 653.057V555.862H1535.92L1596.87 630.702H1589.51V555.862H1607.43V653.057H1592.57L1531.61 578.217H1538.97V653.057H1521.06Z" fill="white"/>
<path d="M0 0H54.2541V687.219H0V0Z" fill="white"/>
</svg>
