<svg xmlns="http://www.w3.org/2000/svg" viewBox="0 0 265.61 69.72"><defs><style>.cls-1{fill:#1d1d1b;}.cls-2{fill:#979595;}</style></defs><g id="Capa_2" data-name="Capa 2"><g id="Capa_1-2" data-name="Capa 1"><path class="cls-1" d="M91.18,12.84c1.36,0,2.85-.05,4.49-.1s3.2-.07,4.76-.07c.1.7.23,1.38.38,2s.3,1.23.43,1.89a.85.85,0,0,1-.51.13c-.25,0-.37-.06-.4-.21A3.33,3.33,0,0,0,99,14.28a4.3,4.3,0,0,0-2-.48H94.53a6.22,6.22,0,0,0-.63,0,4.91,4.91,0,0,0-.88.07c-.28,0-.43.1-.48.2a3,3,0,0,0-.1.76v6.65c0,.08.1.13.38.13s.53.05.83.05h1.51a12.75,12.75,0,0,0,1.59-.08,1.6,1.6,0,0,0,.86-.25,1.46,1.46,0,0,0,.4-.63c.1-.27.2-.63.33-1.11,0-.15.15-.2.4-.2a.72.72,0,0,1,.51.15V25a.73.73,0,0,1-.48.12c-.23,0-.38-.07-.43-.2A10.56,10.56,0,0,0,98,23.71a1.36,1.36,0,0,0-.23-.51.74.74,0,0,0-.25-.22,1.46,1.46,0,0,0-.68-.16l-1.16-.07h-2l-.86.07c-.23,0-.33.08-.33.18v6.75a2.61,2.61,0,0,0,.1.73c0,.11.23.21.56.28a5.43,5.43,0,0,0,1,.15,4.64,4.64,0,0,0,.71.05.84.84,0,0,1,.1.43.6.6,0,0,1-.1.4c-.58-.05-1.21-.07-1.84-.1s-1.24-.05-1.82-.05-1.23,0-1.76.08-1.06.07-1.64.07a.55.55,0,0,1-.1-.4.84.84,0,0,1,.1-.43,4,4,0,0,0,.66-.05,4.7,4.7,0,0,0,.9-.15c.28-.07.43-.17.43-.28a3.21,3.21,0,0,0,.15-.9V14.91a3.53,3.53,0,0,0-.15-.93c0-.1-.15-.2-.43-.25a4.7,4.7,0,0,0-.9-.15c-.33,0-.53,0-.66,0a.84.84,0,0,1-.1-.43.57.57,0,0,1,.1-.4l1.74.07c.58,0,1.13.05,1.66.05ZM102.6,27.71s.1-.25.28-.73.45-1.13.75-1.94.68-1.76,1.08-2.77.81-2,1.21-3.1l1.19-3.07c.38-1,.73-1.84,1-2.6a1.35,1.35,0,0,1,.53-.5,1.06,1.06,0,0,1,.6-.31h.08s0,0,.07.05l5.85,15.35c.43,1.13.65,1.76.73,1.89a1.31,1.31,0,0,0,.58.56,3.55,3.55,0,0,0,.83.32,2.49,2.49,0,0,0,.55.1.75.75,0,0,1,.11.46,1.39,1.39,0,0,1-.08.37c-.55-.05-1.08-.07-1.51-.1s-1-.05-1.64-.05-1.21,0-1.64.05-1,0-1.66.1a.44.44,0,0,1-.1-.4.67.67,0,0,1,.12-.43,3.91,3.91,0,0,0,.81-.1,1.82,1.82,0,0,0,.78-.27.56.56,0,0,0,.1-.41,3.74,3.74,0,0,0-.17-.9c-.13-.43-.31-.89-.48-1.42s-.41-1.05-.61-1.53-.35-.94-.48-1.26a4.16,4.16,0,0,0-.2-.48s0,0-.05-.05-.07-.08-.12-.08l-1.09,0h-1.76c-.58,0-1.09,0-1.49,0s-1,0-1.59.08l-.1,0c0,.05,0,.05,0,.05l-.22.61c-.16.38-.33.85-.53,1.38s-.38,1-.53,1.52a7,7,0,0,0-.36,1.23,5.63,5.63,0,0,0-.07.81c0,.2.15.38.45.5a4.25,4.25,0,0,0,1,.25,3.83,3.83,0,0,0,.6.05,1.15,1.15,0,0,1,.08.38,1.22,1.22,0,0,1,0,.45c-.38,0-.71-.05-1-.05l-.78-.07c-.28,0-.63,0-1.06,0s-.78,0-1.09,0l-.88.07c-.3,0-.65,0-1.11.05,0-.05-.07-.17-.07-.37a1.11,1.11,0,0,1,.07-.46,3.91,3.91,0,0,0,.89-.12,1.44,1.44,0,0,0,.85-.43,6.32,6.32,0,0,0,.73-1.24c.23-.47.41-1,.61-1.46Zm5.62-11.56-2.62,7a.08.08,0,0,0,0,.05c0,.05,0,.08,0,.08l1.36,0c.5,0,.93,0,1.23,0,.46,0,.86,0,1.24,0s.75,0,1.18-.05c0,0,0,0,.08-.07V23.1Zm19.5-3.58c1,0,1.94,0,3,.12a23.76,23.76,0,0,1,3.12.46s0,.2.1.6.15.88.23,1.41.15,1,.22,1.49.11.68.11.76,0,.17-.18.25a1.08,1.08,0,0,1-.45.12.73.73,0,0,1-.36-.1,9.47,9.47,0,0,0-.27-1,5.85,5.85,0,0,0-.79-1.42A4.83,4.83,0,0,0,130.77,14a6.74,6.74,0,0,0-2.9-.53,5.78,5.78,0,0,0-2.87.73,7.09,7.09,0,0,0-2.22,1.94,8.92,8.92,0,0,0-1.41,2.7,9.5,9.5,0,0,0-.48,3,11.64,11.64,0,0,0,.46,3.27,8.89,8.89,0,0,0,1.38,2.93,6.94,6.94,0,0,0,2.32,2.09,6.5,6.5,0,0,0,3.28.78,5.42,5.42,0,0,0,2.24-.43,4.87,4.87,0,0,0,1.54-1,4.45,4.45,0,0,0,1.23-1.69,10.36,10.36,0,0,0,.53-1.66,1.32,1.32,0,0,1,.91.25,5.72,5.72,0,0,1-.1.81c-.08.4-.15.86-.23,1.33s-.23.91-.33,1.29a2.9,2.9,0,0,1-.32.71,9.87,9.87,0,0,1-2.68.95,15.77,15.77,0,0,1-3.5.33,10.19,10.19,0,0,1-3.88-.73,9.11,9.11,0,0,1-3-2.07,8.91,8.91,0,0,1-2-3,9.38,9.38,0,0,1-.68-3.6,10.06,10.06,0,0,1,.7-3.8,9.89,9.89,0,0,1,2-3.15,9.07,9.07,0,0,1,3.07-2.17,9.47,9.47,0,0,1,3.88-.78Zm11.92.27c.56,0,1.11,0,1.64-.05l1.71-.07a.57.57,0,0,1,.1.4.84.84,0,0,1-.1.43,6,6,0,0,0-.63,0,4.26,4.26,0,0,0-.88.15c-.28,0-.43.15-.45.25a3.53,3.53,0,0,0-.15.93V23.2a12.51,12.51,0,0,0,.35,3.13,5.82,5.82,0,0,0,1.06,2.16,4.74,4.74,0,0,0,3.93,1.67,6.31,6.31,0,0,0,2.72-.58,4.38,4.38,0,0,0,2-1.92,7.86,7.86,0,0,0,.8-3.83V16.07c0-.5,0-.93,0-1.21a1.92,1.92,0,0,0-.25-.81,1.3,1.3,0,0,0-.51-.25,5.43,5.43,0,0,0-.86-.22,5.27,5.27,0,0,0-.7-.08.62.62,0,0,1-.1-.43,2.2,2.2,0,0,1,.05-.38l1.54.08c.45,0,1,.05,1.63.05.46,0,.81,0,1.09,0a8.65,8.65,0,0,0,.88,0c.33,0,.68,0,1.11-.05a1.21,1.21,0,0,1,.1.36,1,1,0,0,1-.1.45c-.1,0-.33,0-.68.08a5.83,5.83,0,0,0-1,.17,1.18,1.18,0,0,0-.58.3,1.56,1.56,0,0,0-.25.76,11.68,11.68,0,0,0-.05,1.24v7.71a10.2,10.2,0,0,1-.93,4.63,5.75,5.75,0,0,1-2.65,2.6,8.82,8.82,0,0,1-3.93.83,8.33,8.33,0,0,1-2.85-.5,6.65,6.65,0,0,1-2.27-1.41,6.11,6.11,0,0,1-1.53-2.32,8,8,0,0,1-.58-3.08v-9.6a2.92,2.92,0,0,0-.13-.93c0-.1-.18-.2-.45-.25a4.6,4.6,0,0,0-.89-.15,6.34,6.34,0,0,0-.65,0,1.12,1.12,0,0,1-.1-.43.57.57,0,0,1,.1-.4l1.74.07c.55,0,1.11.05,1.66.05Zm21.87,15.55v.86a6.36,6.36,0,0,0,0,.78c0,.23.05.38.1.4a1.37,1.37,0,0,0,.73.26c.28,0,.73,0,1.34,0h1.61a10.21,10.21,0,0,0,1.81-.2,3.66,3.66,0,0,0,1.57-.61,3.89,3.89,0,0,0,1-1.06,6.12,6.12,0,0,0,.81-1.81c0-.13.17-.18.42-.18a1,1,0,0,1,.71.18c-.28.78-.58,1.61-.91,2.49a12.66,12.66,0,0,0-.63,2.27c-1.53,0-3.07,0-4.61-.05s-3.25-.08-5.16-.08c-.69,0-1.26,0-1.79,0s-1.09.05-1.67.05a.6.6,0,0,1-.1-.4,1.35,1.35,0,0,1,.1-.43,4,4,0,0,0,.66-.05,4.93,4.93,0,0,0,.91-.15c.27-.07.42-.17.45-.28a3,3,0,0,0,.12-.9c0-.36,0-.76,0-1.19V16.12c0-.43,0-.83,0-1.21a3.28,3.28,0,0,0-.12-.93c0-.1-.18-.2-.45-.25a4.93,4.93,0,0,0-.91-.15c-.33,0-.53,0-.66,0a1.35,1.35,0,0,1-.1-.43.62.62,0,0,1,.1-.4l1.74.07c.58,0,1.14.05,1.66.05s1.14,0,1.69-.05l1.69-.07a.57.57,0,0,1,.1.4,1.12,1.12,0,0,1-.1.43,6.23,6.23,0,0,0-.65,0,4.24,4.24,0,0,0-.89.15.63.63,0,0,0-.47.25,5.54,5.54,0,0,0-.11.75V28.39Zm22.08-15.67a3.76,3.76,0,0,0,.91-.15c.35-.1.63-.18.8-.25a1.41,1.41,0,0,1,.33-.13.58.58,0,0,1,.2.05c.1.88.23,1.74.36,2.57s.25,1.61.42,2.37c-.05.05-.12.07-.2.15a.57.57,0,0,1-.38.05c-.2,0-.35-.05-.4-.15a7.14,7.14,0,0,0-1-2.5,2,2,0,0,0-1.74-1h-3.65V28.39c0,.43,0,.83,0,1.19a2.68,2.68,0,0,0,.13.9c.05.11.2.21.48.28a3.87,3.87,0,0,0,.85.15,3.57,3.57,0,0,0,.63.05.84.84,0,0,1,.1.43.44.44,0,0,1-.1.4c-.6-.05-1.16-.07-1.69-.1s-1.1-.05-1.66-.05-1.11,0-1.66.05-1.16,0-1.74.1a.44.44,0,0,1-.1-.4.62.62,0,0,1,.1-.43,4,4,0,0,0,.65-.05,4.24,4.24,0,0,0,.89-.15c.27-.07.42-.17.45-.28a2.68,2.68,0,0,0,.13-.9c0-.36,0-.76,0-1.19V13.75h-3.7a2.08,2.08,0,0,0-1.77,1,7.79,7.79,0,0,0-1,2.5c-.05.1-.17.15-.4.15a.5.5,0,0,1-.35-.05c-.08-.08-.15-.1-.18-.15.15-.76.3-1.56.41-2.37s.22-1.69.32-2.57a.72.72,0,0,1,.36,0,.86.86,0,0,1,.32.1,7.51,7.51,0,0,0,.76.25,3.68,3.68,0,0,0,.83.13Zm4,15s.1-.25.27-.73.43-1.13.76-1.94.66-1.76,1.08-2.77.81-2,1.21-3.1l1.19-3.07c.38-1,.73-1.84,1-2.6a1.38,1.38,0,0,1,.52-.5,1.11,1.11,0,0,1,.61-.31h.07s0,0,.08.05l5.85,15.35c.43,1.13.65,1.76.73,1.89a1.26,1.26,0,0,0,.58.56,3.38,3.38,0,0,0,.83.32,2.32,2.32,0,0,0,.55.1.75.75,0,0,1,.1.46,1.56,1.56,0,0,1-.07.37c-.56-.05-1.09-.07-1.51-.1s-1-.05-1.64-.05-1.21,0-1.64.05l-1.69.1a.56.56,0,0,1-.07-.4.67.67,0,0,1,.12-.43,3.91,3.91,0,0,0,.81-.1,1.82,1.82,0,0,0,.78-.27.56.56,0,0,0,.1-.41,3.42,3.42,0,0,0-.18-.9c-.12-.43-.3-.89-.5-1.42s-.38-1.05-.58-1.53-.35-.94-.48-1.26a4.16,4.16,0,0,0-.2-.48s0,0,0-.05-.08-.08-.13-.08l-1.08,0h-1.76c-.58,0-1.09,0-1.49,0s-1,0-1.59.08a.24.24,0,0,0-.1,0c0,.05-.05.05-.05.05l-.23.61c-.15.38-.32.85-.52,1.38s-.38,1-.53,1.52a7,7,0,0,0-.36,1.23,5.63,5.63,0,0,0-.07.81c0,.2.15.38.45.5a4.25,4.25,0,0,0,1,.25,3.81,3.81,0,0,0,.58.05.84.84,0,0,1,.1.38,1.18,1.18,0,0,1,0,.45c-.37,0-.7-.05-.95-.05l-.78-.07c-.28,0-.63,0-1.06,0s-.78,0-1.09,0l-.88.07c-.3,0-.65,0-1.11.05-.05-.05-.07-.17-.07-.37a1.11,1.11,0,0,1,.07-.46,3.78,3.78,0,0,0,.88-.12,1.32,1.32,0,0,0,.84-.43,5.54,5.54,0,0,0,.75-1.24c.23-.47.41-1,.61-1.46Zm5.62-11.56-2.62,7a.08.08,0,0,0,0,.05c0,.05,0,.08,0,.08l1.36,0c.5,0,.93,0,1.23,0s.86,0,1.21,0,.78,0,1.21-.05c0,0,.05,0,.08-.07V23.1Zm17.89-3.33A11.38,11.38,0,0,1,216.53,14a8.57,8.57,0,0,1,3.47,3.3,9.72,9.72,0,0,1,1.19,4.79,11.86,11.86,0,0,1-.51,3.55A8.08,8.08,0,0,1,219,28.8,8,8,0,0,1,215.8,31a14.08,14.08,0,0,1-5.07.8h-7.18a.55.55,0,0,1-.1-.4,1.12,1.12,0,0,1,.1-.43,3.76,3.76,0,0,0,.65-.05,4.67,4.67,0,0,0,.91-.15c.28-.07.43-.17.45-.28a2.68,2.68,0,0,0,.13-.9c0-.36,0-.76,0-1.19V16.12c0-.43,0-.83,0-1.21a2.92,2.92,0,0,0-.13-.93c0-.1-.17-.2-.45-.25a4.67,4.67,0,0,0-.91-.15,6.23,6.23,0,0,0-.65,0,1.12,1.12,0,0,1-.1-.43.57.57,0,0,1,.1-.4l1.74.07c.58,0,1.13.05,1.69.05l2,0Zm-2.87,3.35v12.9a5.14,5.14,0,0,0,0,.89,1.1,1.1,0,0,0,.1.5c.1.18.4.28.85.33a13.62,13.62,0,0,0,1.49.1,8.25,8.25,0,0,0,3.78-.88,6.78,6.78,0,0,0,2.77-2.7,9,9,0,0,0,1.06-4.61,11.26,11.26,0,0,0-.65-4.13,7.34,7.34,0,0,0-1.79-2.78,6.92,6.92,0,0,0-2.57-1.56,9,9,0,0,0-3-.48h-.65l-.89.08c-.27.05-.42.12-.47.2a4.4,4.4,0,0,0-.1.78v1.36Zm30.66-3.35A11.35,11.35,0,0,1,244.3,14a8.57,8.57,0,0,1,3.47,3.3A9.42,9.42,0,0,1,249,22.12a12.9,12.9,0,0,1-.5,3.55,8.52,8.52,0,0,1-1.69,3.13A8,8,0,0,1,243.57,31a14.08,14.08,0,0,1-5.07.8h-7.16a.51.51,0,0,1-.1-.4.68.68,0,0,1,.1-.43,3.69,3.69,0,0,0,.63-.05,4.22,4.22,0,0,0,.91-.15c.28-.07.43-.17.45-.28a2.68,2.68,0,0,0,.13-.9c0-.36,0-.76,0-1.19V16.12c0-.43,0-.83,0-1.21a2.92,2.92,0,0,0-.13-.93c0-.1-.17-.2-.45-.25a4.22,4.22,0,0,0-.91-.15,6.12,6.12,0,0,0-.63,0,.68.68,0,0,1-.1-.43.52.52,0,0,1,.1-.4l1.74.07c.56,0,1.11.05,1.67.05l2,0ZM236,16.17v12.9a8.37,8.37,0,0,0,.05.89,1.1,1.1,0,0,0,.1.5c.12.18.4.28.85.33a14,14,0,0,0,1.49.1,8.16,8.16,0,0,0,3.78-.88,6.6,6.6,0,0,0,2.77-2.7,8.82,8.82,0,0,0,1.06-4.61,11.26,11.26,0,0,0-.65-4.13,7.34,7.34,0,0,0-1.79-2.78,6.92,6.92,0,0,0-2.57-1.56,9,9,0,0,0-3-.48h-.63l-.88.08c-.28.05-.45.12-.48.2a2.38,2.38,0,0,0-.1.78c0,.33,0,.66,0,1v.33Zm18.24-3.33c1.36,0,2.85-.05,4.49-.1s3.2-.07,4.76-.07a18,18,0,0,0,.38,2c.15.6.3,1.23.42,1.89a.73.73,0,0,1-.47.13c-.28,0-.41-.06-.43-.21a3.37,3.37,0,0,0-1.31-2.19,4.27,4.27,0,0,0-2-.48h-2.47a6.3,6.3,0,0,0-.66,0,5.06,5.06,0,0,0-.88.07c-.28,0-.43.1-.48.2a5.46,5.46,0,0,0-.1.76v6.65c0,.08.13.13.38.13s.53.05.85.05h1.49a13.36,13.36,0,0,0,1.61-.08,1.58,1.58,0,0,0,.84-.25,1.46,1.46,0,0,0,.4-.63c.1-.27.2-.63.33-1.11,0-.15.15-.2.4-.2a.66.66,0,0,1,.5.15V25a.65.65,0,0,1-.45.12c-.25,0-.4-.07-.45-.2-.15-.55-.26-1-.33-1.18a2,2,0,0,0-.25-.51.52.52,0,0,0-.26-.22,1.38,1.38,0,0,0-.65-.16l-1.16-.07h-2.07l-.83.07c-.25,0-.35.08-.35.18v6.7c0,.43.05.68.13.73a1.37,1.37,0,0,0,.73.26c.27,0,.73,0,1.33,0h1.39a11.14,11.14,0,0,0,2-.2,4.4,4.4,0,0,0,1.59-.61,2.65,2.65,0,0,0,1.06-1.18,13.85,13.85,0,0,0,.73-1.69c0-.13.18-.18.43-.18a1,1,0,0,1,.7.18q-.41,1.17-.9,2.49a11.87,11.87,0,0,0-.63,2.27c-1.54,0-3.08,0-4.61-.05s-3.25-.08-5.17-.08c-.68,0-1.28,0-1.79,0s-1.08.05-1.66.05a.55.55,0,0,1-.1-.4,1.12,1.12,0,0,1,.1-.43,3.89,3.89,0,0,0,.65-.05,4.67,4.67,0,0,0,.91-.15c.28-.07.43-.17.45-.28a3.76,3.76,0,0,0,.13-.9V14.91a4.14,4.14,0,0,0-.13-.93c0-.1-.17-.2-.45-.25a4.67,4.67,0,0,0-.91-.15,6.44,6.44,0,0,0-.65,0,1.12,1.12,0,0,1-.1-.43.57.57,0,0,1,.1-.4l1.74.07c.58,0,1.13.05,1.66.05Z"/><path class="cls-1" d="M101.36,45.2a5.84,5.84,0,0,1-.78,3,5.4,5.4,0,0,1-2.22,2A7.28,7.28,0,0,1,95,51a3.51,3.51,0,0,1-.61-.08,1.91,1.91,0,0,1-.63-.17,1.23,1.23,0,0,1-.22-.23.49.49,0,0,1-.18-.4c0-.13,0-.18.15-.16l.51.13a2,2,0,0,0,.57.08A4.16,4.16,0,0,0,97.56,49a4.47,4.47,0,0,0,1.16-3.3,5,5,0,0,0-1.16-3.46A4.7,4.7,0,0,0,94,41c-.18,0-.45,0-.81,0s-.58.1-.63.23a2.67,2.67,0,0,0-.12.91c0,.43,0,.85,0,1.28V55.63c0,.43,0,.84,0,1.21a3.24,3.24,0,0,0,.12.91c0,.1.2.18.48.25a4.86,4.86,0,0,0,.86.18l.63,0a.72.72,0,0,1,.1.4.55.55,0,0,1-.1.41c-.58,0-1.14-.08-1.69-.1s-1.08-.06-1.66-.06-1.09,0-1.67.06-1.13.07-1.71.1a.59.59,0,0,1-.1-.41.72.72,0,0,1,.1-.4c.13,0,.33,0,.63,0a4.9,4.9,0,0,0,.88-.18c.28-.07.43-.15.46-.25a4.64,4.64,0,0,0,.15-.91V42.15a4.88,4.88,0,0,0-.15-.93c0-.1-.18-.2-.46-.25s-.58-.1-.88-.13-.5-.05-.63-.05a.82.82,0,0,1-.1-.43.58.58,0,0,1,.1-.4l1.71.08c.58,0,1.11.05,1.67.05s1.18,0,1.84-.05,1.41,0,2.24,0a7.41,7.41,0,0,1,3,.6,6.07,6.07,0,0,1,2.29,1.77,4.52,4.52,0,0,1,.88,2.82Zm7.76-5.34a8.26,8.26,0,0,1,1.52.1,7.44,7.44,0,0,1,1.23.28c.43.1.93.25,1.56.4.13.73.21,1.51.28,2.32s.13,1.38.15,1.76c0,.1,0,.18-.22.23a1.28,1.28,0,0,1-.38.07.51.51,0,0,1-.33-.12,4.29,4.29,0,0,0-.35-1.24,5.55,5.55,0,0,0-.81-1.36,4.85,4.85,0,0,0-1.23-1.06,3.23,3.23,0,0,0-1.62-.42,3.11,3.11,0,0,0-1.86.5,2.53,2.53,0,0,0-1,1.24,3.63,3.63,0,0,0-.3,1.43,3.08,3.08,0,0,0,.6,1.92,5.92,5.92,0,0,0,1.54,1.33c.61.41,1.24.81,1.87,1.21.45.3,1,.63,1.56,1s1.11.76,1.64,1.18a6.38,6.38,0,0,1,1.28,1.49,3.74,3.74,0,0,1,.5,1.92,4.55,4.55,0,0,1-.88,2.74,5.68,5.68,0,0,1-2.21,1.84,6.35,6.35,0,0,1-2.9.66,11,11,0,0,1-2.77-.33c-.89-.2-1.69-.38-2.4-.5-.12-.58-.23-1.19-.33-1.84s-.15-1.21-.2-1.72-.07-.78-.07-.9a3.54,3.54,0,0,1,.35-.26,1.07,1.07,0,0,1,.4-.1.28.28,0,0,1,.3.28,8.75,8.75,0,0,0,.38,1.13,7,7,0,0,0,.81,1.47,4.55,4.55,0,0,0,1.44,1.28,4,4,0,0,0,2.14.53,3.43,3.43,0,0,0,2.42-.93,3.34,3.34,0,0,0,1-2.6,2.93,2.93,0,0,0-.55-1.89,4.86,4.86,0,0,0-1.42-1.16c-.58-.35-1.18-.68-1.86-1.06s-1.46-.9-2.24-1.43a8.27,8.27,0,0,1-2-1.84,4,4,0,0,1-.78-2.5,4.44,4.44,0,0,1,.81-2.67,5.31,5.31,0,0,1,2.09-1.74,6.54,6.54,0,0,1,2.74-.6Zm11,.23c.58,0,1.13,0,1.66-.05l1.69-.08a.53.53,0,0,1,.1.4.66.66,0,0,1-.1.43c-.13,0-.33,0-.63.05s-.61.08-.88.13-.43.15-.48.25a3.09,3.09,0,0,0-.1.78c0,.3,0,.66,0,1V56c0,.37,0,.7,0,1a3,3,0,0,0,.1.76c0,.1.2.18.48.25a4.41,4.41,0,0,0,.88.18c.3,0,.5,0,.63,0a.58.58,0,0,1,.1.4.55.55,0,0,1-.1.41c-.58,0-1.14-.08-1.69-.1s-1.08-.06-1.66-.06-1.11,0-1.67.06-1.16.07-1.73.1a.59.59,0,0,1-.11-.41.64.64,0,0,1,.11-.4l.65,0a4.9,4.9,0,0,0,.88-.18c.3-.07.46-.15.46-.25a4.64,4.64,0,0,0,.15-.91V42.15a4.88,4.88,0,0,0-.15-.93c0-.1-.16-.2-.46-.25s-.58-.1-.88-.13l-.65-.05a.72.72,0,0,1-.11-.43.58.58,0,0,1,.11-.4l1.73.08c.56,0,1.14.05,1.67.05ZM135,39.81c1,0,1.94,0,3,.12a20.73,20.73,0,0,1,3.12.48s0,.2.1.61.13.85.21,1.41.15,1,.22,1.46a5.39,5.39,0,0,1,.1.78c0,.08,0,.15-.17.23a.93.93,0,0,1-.43.12.5.5,0,0,1-.35-.1c-.06-.2-.16-.55-.28-1a4.79,4.79,0,0,0-.81-1.41A4.5,4.5,0,0,0,138,41.27a7.14,7.14,0,0,0-2.89-.5,5.79,5.79,0,0,0-2.88.7A7.19,7.19,0,0,0,130,43.41a8.93,8.93,0,0,0-1.42,2.72,9.6,9.6,0,0,0-.5,3,11,11,0,0,0,.48,3.27A9.19,9.19,0,0,0,130,55.33a6.88,6.88,0,0,0,2.32,2.07,6.45,6.45,0,0,0,3.28.78,5.24,5.24,0,0,0,3.78-1.39,4.3,4.3,0,0,0,1.23-1.69,9.43,9.43,0,0,0,.53-1.66,1.36,1.36,0,0,1,.91.25,4.49,4.49,0,0,1-.1.81c-.08.43-.15.88-.25,1.34a9.84,9.84,0,0,1-.33,1.28,2.28,2.28,0,0,1-.3.71,9.68,9.68,0,0,1-2.7,1,17.65,17.65,0,0,1-3.48.33,9.77,9.77,0,0,1-3.88-.76,9.27,9.27,0,0,1-5-5.06,9.37,9.37,0,0,1-.71-3.61,10.06,10.06,0,0,1,2.75-7,9.17,9.17,0,0,1,3.07-2.17,9.38,9.38,0,0,1,3.88-.78Zm18.38,0a9.28,9.28,0,0,1,3.6.7,9.67,9.67,0,0,1,3,2,9.74,9.74,0,0,1,2.77,7,9.79,9.79,0,0,1-.73,3.78,11.11,11.11,0,0,1-2,3.1,9.46,9.46,0,0,1-3,2.06,8.65,8.65,0,0,1-3.6.76,8.88,8.88,0,0,1-3.56-.71,8.54,8.54,0,0,1-3-2,9.16,9.16,0,0,1-2-3.08,9.93,9.93,0,0,1-.75-3.9,9.59,9.59,0,0,1,.75-3.78,9.45,9.45,0,0,1,2-3.1,9.23,9.23,0,0,1,3-2.1,8.58,8.58,0,0,1,3.56-.75Zm-.41,1a5.14,5.14,0,0,0-2.77.71,6,6,0,0,0-1.86,1.91A8.79,8.79,0,0,0,147.23,46a12.3,12.3,0,0,0-.33,2.88,12.7,12.7,0,0,0,.45,3.32,10.36,10.36,0,0,0,1.34,3,7.31,7.31,0,0,0,2.17,2.19,5.64,5.64,0,0,0,5.72.1,5.7,5.7,0,0,0,1.86-1.92A8.42,8.42,0,0,0,159.52,53a12.16,12.16,0,0,0,.33-2.87,12.49,12.49,0,0,0-.45-3.33,10.48,10.48,0,0,0-1.34-3,7.15,7.15,0,0,0-2.19-2.16,5.26,5.26,0,0,0-3-.81Zm16.26,14.84v.86c0,.3,0,.56,0,.78s.05.38.1.41a1.48,1.48,0,0,0,.73.25,9.31,9.31,0,0,0,1.34,0H173a9.33,9.33,0,0,0,1.82-.18,4.27,4.27,0,0,0,1.56-.6,5,5,0,0,0,1-1.06,6.74,6.74,0,0,0,.83-1.82c0-.12.18-.2.41-.2a1,1,0,0,1,.7.2c-.28.78-.58,1.62-.91,2.47a15.91,15.91,0,0,0-.63,2.27c-1.53,0-3.07,0-4.61-.05s-3.25,0-5.16,0c-.68,0-1.26,0-1.79,0s-1.09,0-1.67,0a.65.65,0,0,1-.1-.41,1.13,1.13,0,0,1,.1-.4l.66,0a6.1,6.1,0,0,0,.91-.18c.27-.07.42-.15.45-.25a2.88,2.88,0,0,0,.13-.91c0-.37,0-.78,0-1.21V43.36c0-.4,0-.83,0-1.21a3,3,0,0,0-.13-.93c0-.1-.18-.2-.45-.25s-.61-.1-.91-.13l-.66-.05a1.28,1.28,0,0,1-.1-.43.64.64,0,0,1,.1-.4l1.74.08c.58,0,1.14.05,1.69.05s1.11,0,1.66-.05l1.69-.08a.58.58,0,0,1,.1.4,1.07,1.07,0,0,1-.1.43l-.65.05c-.31,0-.61.08-.88.13s-.43.15-.48.25a4.4,4.4,0,0,0-.1.78V55.63Zm20.33-15.82a9.4,9.4,0,0,1,3.61.7,9.66,9.66,0,0,1,3,2,9.93,9.93,0,0,1,2.8,7,9.45,9.45,0,0,1-.76,3.78,10.69,10.69,0,0,1-2,3.1,9.44,9.44,0,0,1-3,2.06,8.76,8.76,0,0,1-3.61.76,9.08,9.08,0,0,1-3.58-.71,8.73,8.73,0,0,1-3-2,9.63,9.63,0,0,1-2-3.08,10.49,10.49,0,0,1-.73-3.9,10.14,10.14,0,0,1,.73-3.78,10,10,0,0,1,2-3.1,9.45,9.45,0,0,1,3-2.1,8.77,8.77,0,0,1,3.58-.75Zm-.4,1a5.07,5.07,0,0,0-2.77.71,6.09,6.09,0,0,0-1.87,1.91A9.06,9.06,0,0,0,183.41,46a12.89,12.89,0,0,0-.35,2.88,11.59,11.59,0,0,0,.48,3.32,10.11,10.11,0,0,0,1.34,3A7.11,7.11,0,0,0,187,57.45a5.35,5.35,0,0,0,3,.83,5.08,5.08,0,0,0,2.75-.73,6.08,6.08,0,0,0,1.89-1.92A9.15,9.15,0,0,0,195.69,53a12.73,12.73,0,0,0,.35-2.87,12.11,12.11,0,0,0-.46-3.33,10.25,10.25,0,0,0-1.36-3,7.17,7.17,0,0,0-2.16-2.16,5.26,5.26,0,0,0-2.95-.81ZM215,53.92V52.56a3.1,3.1,0,0,0-.12-.76c0-.1-.15-.2-.46-.27a3.84,3.84,0,0,0-.88-.15c-.3,0-.5-.06-.63-.06a1,1,0,0,1-.1-.4.62.62,0,0,1,.1-.4l1.72.07c.55,0,1.08.08,1.63.08s1.11,0,1.62-.08l1.61-.07a.56.56,0,0,1,.13.4c0,.2,0,.35-.13.4l-.61.06a3.08,3.08,0,0,0-.8.15c-.28.07-.43.17-.46.27a3.29,3.29,0,0,0-.12.91c0,.38,0,.78,0,1.21v2a1.44,1.44,0,0,0,.15.71.75.75,0,0,1,.16.45.34.34,0,0,1-.1.23,2.45,2.45,0,0,1-.46.27c-.43.23-.91.46-1.43.69a10.81,10.81,0,0,1-2,.57,15.27,15.27,0,0,1-3.15.26,9.67,9.67,0,0,1-3.86-.76,9.27,9.27,0,0,1-5-5.06,9,9,0,0,1-.71-3.61,10.4,10.4,0,0,1,.73-3.8,9.87,9.87,0,0,1,2-3.15,8.88,8.88,0,0,1,3.07-2.17,9.29,9.29,0,0,1,3.89-.78c.93,0,1.91,0,2.94.12a20.29,20.29,0,0,1,3.13.48s0,.2.12.61.13.85.21,1.41.15,1,.22,1.46a5.39,5.39,0,0,1,.1.78c0,.08,0,.15-.17.23a.93.93,0,0,1-.43.12.59.59,0,0,1-.38-.1,8.24,8.24,0,0,0-.25-1,4.79,4.79,0,0,0-.81-1.41,4.42,4.42,0,0,0-1.66-1.26,7,7,0,0,0-2.87-.5,5.79,5.79,0,0,0-2.88.7,6.86,6.86,0,0,0-2.21,1.94,9,9,0,0,0-1.44,2.72,9.29,9.29,0,0,0-.48,3,12,12,0,0,0,.45,3.27,9.42,9.42,0,0,0,1.39,2.95,7.08,7.08,0,0,0,2.32,2.07,6.54,6.54,0,0,0,3.27.78,6.1,6.1,0,0,0,2-.3,15.4,15.4,0,0,0,1.51-.63.32.32,0,0,0,.17-.15V53.92Zm9.43-13.83c.58,0,1.13,0,1.66-.05l1.72-.08a.64.64,0,0,1,.1.4,1.28,1.28,0,0,1-.1.43l-.66.05c-.3,0-.6.08-.88.13s-.43.15-.48.25a4.4,4.4,0,0,0-.1.78V57a4.4,4.4,0,0,0,.1.76c0,.1.2.18.48.25a5.08,5.08,0,0,0,.88.18l.66,0a1.13,1.13,0,0,1,.1.4.65.65,0,0,1-.1.41c-.61,0-1.16-.08-1.72-.1s-1.08-.06-1.66-.06-1.08,0-1.66.06-1.14.07-1.74.1a.59.59,0,0,1-.1-.41.72.72,0,0,1,.1-.4l.65,0a5.86,5.86,0,0,0,.91-.18c.28-.07.43-.15.43-.25a4.64,4.64,0,0,0,.15-.91V42.15a4.88,4.88,0,0,0-.15-.93c0-.1-.15-.2-.43-.25s-.61-.1-.91-.13l-.65-.05a.82.82,0,0,1-.1-.43.58.58,0,0,1,.1-.4l1.74.08c.58,0,1.13.05,1.66.05ZM231.19,55s.08-.25.28-.73.43-1.11.76-1.94.65-1.74,1.05-2.74.81-2,1.24-3.13.8-2.09,1.18-3.07.71-1.84,1-2.57a2.06,2.06,0,0,1,1.11-.84c.05,0,.08,0,.08,0a.1.1,0,0,0,.07,0l5.85,15.35c.43,1.14.68,1.77.73,1.89a1.43,1.43,0,0,0,.58.56,3,3,0,0,0,.85.32,2.78,2.78,0,0,0,.56.13.54.54,0,0,1,.07.43,1.23,1.23,0,0,1-.05.38l-1.53-.1c-.46,0-1-.06-1.62-.06s-1.21,0-1.66.06-1,.07-1.66.1a.59.59,0,0,1-.1-.41.58.58,0,0,1,.12-.4,4.6,4.6,0,0,0,.83-.13,1.42,1.42,0,0,0,.76-.27.56.56,0,0,0,.13-.41,3.89,3.89,0,0,0-.21-.9c-.12-.41-.27-.89-.47-1.42s-.38-1-.58-1.53l-.51-1.26c-.12-.3-.17-.48-.17-.48s0,0-.08,0-.05-.05-.1-.05c-.3,0-.66,0-1.08,0h-3.28c-.4,0-.93,0-1.59.08a.1.1,0,0,0-.07,0,.26.26,0,0,0-.08.05s-.05.18-.2.58-.33.86-.53,1.38-.38,1.06-.55,1.54a6,6,0,0,0-.33,1.21,6.19,6.19,0,0,0-.08.81c0,.2.15.38.46.5a2.73,2.73,0,0,0,.93.25l.6.08c.05,0,.08.15.1.35a1.16,1.16,0,0,1,0,.46c-.37,0-.68,0-.93,0l-.8-.08c-.26,0-.61,0-1,0s-.8,0-1.08,0l-.88.08-1.14,0a1,1,0,0,1-.05-.38,1.78,1.78,0,0,1,.05-.43,4.68,4.68,0,0,0,.91-.15,1.25,1.25,0,0,0,.83-.43,5.09,5.09,0,0,0,.76-1.23c.2-.46.4-1,.6-1.47Zm5.6-11.54-2.6,7v0c0,.05,0,.08.05.08.38,0,.81,0,1.34,0h1.23c.48,0,.88,0,1.24,0s.75,0,1.18,0c.05,0,.08,0,.08-.07a.24.24,0,0,0,0-.08Z"/><path class="cls-2" d="M58.53,9.79c.74,6.94,2.95,13.7,2.35,20.78-.43,5.19-1.66,10.09-4.85,14.3-3.89,5.22-9.28,7.17-15.67,7.34,1.4-7.54,2.38-15,4.53-22.21.48-1.55,1.08-3.07,1.66-4.62a8.06,8.06,0,0,1,5.1-5.13,4.55,4.55,0,0,0,2.64-2c.34-.61.28-1-.52-1-4.76.06-9.51-.11-14.21.86-2.13.46-4.22,1.17-5.48,3.64,2-.12,3.73-.2,5.48-.34s1.77-.15,1.31,1.6c-1.8,7-3.92,13.84-5.53,20.86a61.89,61.89,0,0,0-1.14,7.26c-.06.8-.29,1.08-1.09.94-1.12-.17-2.24-.2-3.36-.4a10.4,10.4,0,0,1-9.11-10.32c-.29-5.53,1.52-10.63,3.24-15.76.86-2.58,1.78-5.13,2.75-7.62.4-1.09,0-1.24-.92-1.18-7.36.49-14.5,1.81-21.12,5.25-.77.4-2.38,1.11-2.89,1.4a37,37,0,0,1,8.36-13.27A35.14,35.14,0,0,1,55.92,7c.89.66,1.69,1.46,2.55,2.18,0,.34,0,.37.06.6Z"/><path class="cls-2" d="M30.76,69.72c-9.52-.86-19.46-6-26.08-16.62A33.2,33.2,0,0,1,.09,40.69c-.2-1.15-.2-2,1.43-2.07s2.24-.94,2.33-2.49a23.49,23.49,0,0,0-.26-4.44c-.63-4.42.83-7.11,4.9-9a25.22,25.22,0,0,1,8.62-1.86c1.09-.12,1.35.22,1,1.28-1.46,4.48-2.93,9-4.24,13.45a20.21,20.21,0,0,0-.58,9.71A11.21,11.21,0,0,0,16.23,51a19.48,19.48,0,0,0,11.2,5.53,37.77,37.77,0,0,0,3.93.52c1.37,0,1.49.71,1.29,1.77-.55,3-1,6-1.66,9a5.34,5.34,0,0,0-.23,1.52Z"/><path class="cls-2" d="M42.82,69.09a18.52,18.52,0,0,1-5.73.57c.6-3.52,1.32-7,1.75-10.57a2.26,2.26,0,0,1,2.21-2.27A28.51,28.51,0,0,0,60.48,44.18a35.45,35.45,0,0,0,5.33-16c.14-1.32.23-2.66.34-4,0-.26,0-.09.06-.6,0-1,.06-2,.06-3,0-.6-.09-.77,0-.77s.28.32.45.66a1.34,1.34,0,0,1,.15.29c.17.37.08.2.17.34,8,19.6-1.75,40.7-21.78,47.26a7.42,7.42,0,0,1-1.21.34h0c-.51.15-.31.09-1.2.32Z"/><path class="cls-1" d="M223.63,36.66l1.74-.93c.5-.28-.48.22,0,0l1.41-.74.85-.45c.13-.05.21,0,.28.13a3.47,3.47,0,0,1,.28,1.43l-1.44.76c-.6.33.23-.13-.48.25s-1.41.76-2.11,1.11c-.1,0-.2,0-.28-.18a2.12,2.12,0,0,1-.2-.68,3,3,0,0,1-.08-.65Z"/></g></g></svg>